<?xml version="1.0" encoding="UTF-8"?>
<svg width="165px" height="162px" viewBox="0 0 165 162" version="1.1" xmlns="http://www.w3.org/2000/svg" xmlns:xlink="http://www.w3.org/1999/xlink">
    <!-- Generator: Sketch 43.2 (39069) - http://www.bohemiancoding.com/sketch -->
    <title>Group 4</title>
    <desc>Created with Sketch.</desc>
    <defs></defs>
    <g id="Page-1" stroke="none" stroke-width="1" fill="none" fill-rule="evenodd">
        <g id="Group-4" transform="translate(0.988281, 0.500000)" fill-rule="nonzero">
            <g id="noun_1128338_cc">
                <g id="Group">
                    <g>
                        <g>
                            <path d="M16.3935381,24.6957723 C10.434487,24.6957723 5.93992532,29.2723017 5.45631594,35.8242524 L5.46451271,121.772841 C8.31698835,119.125284 12.1011634,117.592488 16.3935381,117.592488 L22.2187087,117.592488 C23.5247272,117.592488 24.5903072,116.526908 24.5903072,115.22089 L24.5903072,27.0673708 C24.5903072,25.7613523 23.5247272,24.6957723 22.2187087,24.6957723 L16.3935381,24.6957723 Z M2.73498861,136.718283 L2.63116287,136.718283 C1.16394121,136.660906 0,135.45598 0,133.986027 L0,35.6247977 C0.707654396,25.8897683 7.44813083,19.2312596 16.3935381,19.2312596 L22.2187087,19.2312596 C26.538406,19.2312596 30.0548199,22.7476735 30.0548199,27.0673708 L30.0548199,115.22089 C30.0548199,119.540587 26.538406,123.057001 22.2187087,123.057001 L16.3935381,123.057001 C10.434487,123.057001 5.93992532,127.633531 5.45631594,134.185481 C5.3524902,135.617184 4.15576192,136.718283 2.73498861,136.718283 L2.73498861,136.718283 Z" id="Shape" fill="#9B9B9B"></path>
                            <path d="M141.717219,24.5903072 C140.408468,24.5903072 139.345621,25.6558872 139.345621,26.9619057 L139.345621,115.115425 C139.345621,116.421443 140.408468,117.487023 141.717219,117.487023 L147.54239,117.487023 C151.834764,117.487023 155.618939,119.019819 158.471415,121.667376 L158.471415,35.5193326 C157.996002,29.1668366 153.498709,24.5903072 147.54239,24.5903072 L141.717219,24.5903072 Z M161.200939,136.612818 C159.774701,136.612818 158.583438,135.511718 158.479612,134.080016 C157.996002,127.528065 153.498709,122.951536 147.54239,122.951536 L141.717219,122.951536 C137.397522,122.951536 133.881108,119.435122 133.881108,115.115425 L133.881108,26.9619057 C133.881108,22.6422084 137.397522,19.1257945 141.717219,19.1257945 L147.54239,19.1257945 C156.487797,19.1257945 163.228273,25.7843032 163.927731,35.3198779 L163.935928,133.880561 C163.935928,135.350515 162.771987,136.55544 161.304765,136.612818 L161.200939,136.612818 L161.200939,136.612818 Z" id="Shape" fill="#9B9B9B"></path>
                            <path d="M144.705488,153.111821 L109.289981,153.111821 C107.779043,153.111821 106.557725,151.88777 106.557725,150.379565 C106.557725,148.871359 107.779043,147.647308 109.289981,147.647308 L144.705488,147.647308 C152.295696,147.647308 158.470595,141.472409 158.470595,133.879469 C158.470595,132.371263 159.691914,131.147212 161.202852,131.147212 C162.71379,131.147212 163.935108,132.371263 163.935108,133.879469 C163.935108,144.483355 155.309375,153.111821 144.705488,153.111821" id="Shape" fill="#9B9B9B"></path>
                            <path d="M81.9676907,153.111821 L19.1257945,153.111821 C8.58201721,153.111821 0,144.532536 0,133.986027 C0,132.477821 1.22131859,131.25377 2.73225636,131.25377 C4.24319412,131.25377 5.46451271,132.477821 5.46451271,133.986027 C5.46451271,141.518857 11.5929637,147.647308 19.1257945,147.647308 L81.9676907,147.647308 C83.4786284,147.647308 84.699947,148.871359 84.699947,150.379565 C84.699947,151.88777 83.4786284,153.111821 81.9676907,153.111821" id="Shape" fill="#9B9B9B"></path>
                            <path d="M43.7161017,38.3570541 L27.3225636,38.3570541 C25.8116258,38.3570541 24.5903072,37.1330032 24.5903072,35.6247977 C24.5903072,34.1165922 25.8116258,32.8925414 27.3225636,32.8925414 L43.7161017,32.8925414 C45.2270395,32.8925414 46.4483581,34.1165922 46.4483581,35.6247977 C46.4483581,37.1330032 45.2270395,38.3570541 43.7161017,38.3570541" id="Shape" fill="#9B9B9B"></path>
                            <path d="M136.612818,38.3570541 L65.5741525,38.3570541 C64.0632148,38.3570541 62.8418962,37.1330032 62.8418962,35.6247977 C62.8418962,34.1165922 64.0632148,32.8925414 65.5741525,32.8925414 L136.612818,32.8925414 C138.123756,32.8925414 139.345074,34.1165922 139.345074,35.6247977 C139.345074,37.1330032 138.123756,38.3570541 136.612818,38.3570541" id="Shape" fill="#9B9B9B"></path>
                            <g id="Group-2" transform="translate(39.983845, 0.000000)" fill="#69AED4">
                                <path d="M25.5903072,133.880561 L25.6176298,133.880561 L25.5903072,133.880561 Z M6.46451271,132.921539 L14.6612818,143.167501 L22.8580508,132.921539 L22.8580508,24.5903072 L6.46451271,24.5903072 L6.46451271,132.921539 Z M14.6612818,150.2741 C13.8306758,150.2741 13.0465183,149.897048 12.5273896,149.249503 L1.59836414,135.588222 C1.21038374,135.10188 1,134.500784 1,133.880561 L1,21.8580508 C1,20.3498453 2.22131859,19.1257945 3.73225636,19.1257945 L25.5903072,19.1257945 C27.101245,19.1257945 28.3225636,20.3498453 28.3225636,21.8580508 L28.3225636,133.880561 C28.3225636,134.500784 28.1121798,135.10188 27.7241994,135.588222 L16.795174,149.249503 C16.2760453,149.897048 15.4918877,150.2741 14.6612818,150.2741 L14.6612818,150.2741 Z" id="Shape"></path>
                                <path d="M6.46451271,19.1257945 L22.8580508,19.1257945 L22.8580508,10.9290254 C22.8580508,7.91534666 20.4072169,5.46451271 17.3935381,5.46451271 L11.9290254,5.46451271 C8.91534666,5.46451271 6.46451271,7.91534666 6.46451271,10.9290254 L6.46451271,19.1257945 Z M25.5903072,24.5903072 L3.73225636,24.5903072 C2.22131859,24.5903072 1,23.3662564 1,21.8580508 L1,10.9290254 C1,4.9016679 5.9016679,0 11.9290254,0 L17.3935381,0 C23.4208957,0 28.3225636,4.9016679 28.3225636,10.9290254 L28.3225636,21.8580508 C28.3225636,23.3662564 27.101245,24.5903072 25.5903072,24.5903072 L25.5903072,24.5903072 Z" id="Shape"></path>
                                <path d="M14.6612818,155.738612 C13.150344,155.738612 11.9290254,154.514561 11.9290254,153.006356 L11.9290254,147.541843 C11.9290254,146.033638 13.150344,144.809587 14.6612818,144.809587 C16.1722195,144.809587 17.3935381,146.033638 17.3935381,147.541843 L17.3935381,153.006356 C17.3935381,154.514561 16.1722195,155.738612 14.6612818,155.738612" id="Shape"></path>
                                <path d="M14.6612818,128.416049 C13.150344,128.416049 11.9290254,127.191998 11.9290254,125.683792 L11.9290254,32.7870763 C11.9290254,31.2788708 13.150344,30.0548199 14.6612818,30.0548199 C16.1722195,30.0548199 17.3935381,31.2788708 17.3935381,32.7870763 L17.3935381,125.683792 C17.3935381,127.191998 16.1722195,128.416049 14.6612818,128.416049" id="Shape"></path>
                                <path d="M6.46451271,30.0548199 L22.8580508,30.0548199 L22.8580508,24.5903072 L6.46451271,24.5903072 L6.46451271,30.0548199 Z M25.5903072,35.5193326 L3.73225636,35.5193326 C2.22131859,35.5193326 1,34.2952818 1,32.7870763 L1,21.8580508 C1,20.3498453 2.22131859,19.1257945 3.73225636,19.1257945 L25.5903072,19.1257945 C27.101245,19.1257945 28.3225636,20.3498453 28.3225636,21.8580508 L28.3225636,32.7870763 C28.3225636,34.2952818 27.101245,35.5193326 25.5903072,35.5193326 L25.5903072,35.5193326 Z" id="Shape"></path>
                                <path d="M25.5875749,136.612818 C25.0165334,136.612818 24.4427595,136.435221 23.9509534,136.066367 L14.6612818,129.099113 L5.37161017,136.066367 C4.16395286,136.973476 2.45082812,136.72484 1.54645127,135.519915 C0.639342161,134.312258 0.885245233,132.599133 2.09290254,131.694756 L13.021928,123.497987 C13.9946112,122.771207 15.3279523,122.771207 16.3006356,123.497987 L27.229661,131.694756 C28.4373183,132.599133 28.6832214,134.312258 27.7761123,135.519915 C27.2378578,136.235766 26.4209131,136.612818 25.5875749,136.612818" id="Shape"></path>
                            </g>
                            <g id="Group-3" transform="translate(79.235434, 43.716102)" fill="#69AED4">
                                <path d="M5.46451271,112.022511 L27.3225636,112.022511 L27.3225636,5.46451271 L5.46451271,5.46451271 L5.46451271,112.022511 Z M30.0548199,117.487023 L2.73225636,117.487023 C1.22131859,117.487023 0,116.262972 0,114.754767 L0,2.73225636 C0,1.22405085 1.22131859,0 2.73225636,0 L30.0548199,0 C31.5657577,0 32.7870763,1.22405085 32.7870763,2.73225636 L32.7870763,114.754767 C32.7870763,116.262972 31.5657577,117.487023 30.0548199,117.487023 L30.0548199,117.487023 Z" id="Shape"></path>
                                <path d="M10.9290254,103.825742 L2.73225636,103.825742 C1.22131859,103.825742 0,102.601691 0,101.093485 C0,99.5852797 1.22131859,98.3612288 2.73225636,98.3612288 L10.9290254,98.3612288 C12.4399632,98.3612288 13.6612818,99.5852797 13.6612818,101.093485 C13.6612818,102.601691 12.4399632,103.825742 10.9290254,103.825742" id="Shape"></path>
                                <path d="M10.9290254,92.8967161 L2.73225636,92.8967161 C1.22131859,92.8967161 0,91.6726653 0,90.1644597 C0,88.6562542 1.22131859,87.4322034 2.73225636,87.4322034 L10.9290254,87.4322034 C12.4399632,87.4322034 13.6612818,88.6562542 13.6612818,90.1644597 C13.6612818,91.6726653 12.4399632,92.8967161 10.9290254,92.8967161" id="Shape"></path>
                                <path d="M16.3935381,81.9676907 L2.73225636,81.9676907 C1.22131859,81.9676907 0,80.7436398 0,79.2354343 C0,77.7272288 1.22131859,76.503178 2.73225636,76.503178 L16.3935381,76.503178 C17.9044759,76.503178 19.1257945,77.7272288 19.1257945,79.2354343 C19.1257945,80.7436398 17.9044759,81.9676907 16.3935381,81.9676907" id="Shape"></path>
                                <path d="M10.9290254,71.0386653 L2.73225636,71.0386653 C1.22131859,71.0386653 0,69.8146144 0,68.3064089 C0,66.7982034 1.22131859,65.5741525 2.73225636,65.5741525 L10.9290254,65.5741525 C12.4399632,65.5741525 13.6612818,66.7982034 13.6612818,68.3064089 C13.6612818,69.8146144 12.4399632,71.0386653 10.9290254,71.0386653" id="Shape"></path>
                                <path d="M10.9290254,60.1096398 L2.73225636,60.1096398 C1.22131859,60.1096398 0,58.885589 0,57.3773835 C0,55.869178 1.22131859,54.6451271 2.73225636,54.6451271 L10.9290254,54.6451271 C12.4399632,54.6451271 13.6612818,55.869178 13.6612818,57.3773835 C13.6612818,58.885589 12.4399632,60.1096398 10.9290254,60.1096398" id="Shape"></path>
                                <path d="M16.3935381,49.1806144 L2.73225636,49.1806144 C1.22131859,49.1806144 0,47.9565636 0,46.4483581 C0,44.9401525 1.22131859,43.7161017 2.73225636,43.7161017 L16.3935381,43.7161017 C17.9044759,43.7161017 19.1257945,44.9401525 19.1257945,46.4483581 C19.1257945,47.9565636 17.9044759,49.1806144 16.3935381,49.1806144" id="Shape"></path>
                                <path d="M10.9290254,38.251589 L2.73225636,38.251589 C1.22131859,38.251589 0,37.0275381 0,35.5193326 C0,34.0111271 1.22131859,32.7870763 2.73225636,32.7870763 L10.9290254,32.7870763 C12.4399632,32.7870763 13.6612818,34.0111271 13.6612818,35.5193326 C13.6612818,37.0275381 12.4399632,38.251589 10.9290254,38.251589" id="Shape"></path>
                                <path d="M14.3416136,13.6612818 C13.9645622,13.6612818 13.6612818,13.9672945 13.6612818,14.3416136 L13.6612818,18.4454627 C13.6612818,18.8197818 13.9645622,19.1257945 14.3416136,19.1257945 L18.4454627,19.1257945 C18.822514,19.1257945 19.1257945,18.8197818 19.1257945,18.4454627 L19.1257945,14.3416136 C19.1257945,13.9672945 18.822514,13.6612818 18.4454627,13.6612818 L14.3416136,13.6612818 Z M18.4454627,24.5903072 L14.3416136,24.5903072 C10.9536157,24.5903072 8.19676907,21.8334605 8.19676907,18.4454627 L8.19676907,14.3416136 C8.19676907,10.9536157 10.9536157,8.19676907 14.3416136,8.19676907 L18.4454627,8.19676907 C21.8334605,8.19676907 24.5903072,10.9536157 24.5903072,14.3416136 L24.5903072,18.4454627 C24.5903072,21.8334605 21.8334605,24.5903072 18.4454627,24.5903072 L18.4454627,24.5903072 Z" id="Shape"></path>
                            </g>
                        </g>
                    </g>
                </g>
            </g>
        </g>
    </g>
</svg>