<?xml version="1.0" encoding="UTF-8"?>
<svg width="271px" height="272px" viewBox="0 0 271 272" version="1.1" xmlns="http://www.w3.org/2000/svg" xmlns:xlink="http://www.w3.org/1999/xlink">
    <!-- Generator: Sketch 43.2 (39069) - http://www.bohemiancoding.com/sketch -->
    <title>Group 2</title>
    <desc>Created with Sketch.</desc>
    <defs></defs>
    <g id="Page-1" stroke="none" stroke-width="1" fill="none" fill-rule="evenodd">
        <g id="Group-2">
            <circle id="Oval" fill="#F5F6F7" cx="135.15625" cy="136" r="135.076172"></circle>
            <g id="noun_1154833_cc" transform="translate(33.156250, 32.000000)" fill-rule="nonzero">
                <g id="Group">
                    <path d="M200.554844,109.686562 C196.620938,104.595625 189.67875,103.438594 182.27375,106.446875 C180.4225,107.141094 177.645625,108.298125 174.405938,109.686562 L187.8275,72.8929687 C188.984531,69.6532812 188.753125,66.1821875 187.364688,63.1739062 C185.97625,60.165625 183.430781,57.8515625 180.191094,56.6945312 C177.877031,55.7689062 175.331563,55.7689062 173.0175,56.463125 L174.637344,51.835 C175.794375,48.5953125 175.562969,45.1242187 174.174531,42.1159375 C172.786094,39.1076562 170.240625,36.7935937 167.000938,35.6365625 C160.521563,33.3225 153.347969,36.7935937 151.033906,43.0415625 C149.645469,41.1903125 147.562813,39.5704687 145.24875,38.6448437 C138.769375,36.3307812 131.595781,39.801875 129.050313,46.28125 L126.73625,52.760625 C125.347813,50.909375 123.265156,49.2895312 120.951094,48.5953125 C114.471719,46.28125 107.298125,49.7523437 104.752656,56.463125 L97.3476563,77.2896875 L93.8765625,68.49625 C92.7195313,65.2565625 90.1740625,62.7110937 87.1657813,61.3226562 C84.1575,59.9342187 80.9178125,59.9342187 77.9095313,61.09125 C75.5954688,62.016875 73.7442188,63.6367187 72.3557813,65.4879687 L69.8103125,59.24 C68.6532813,56.0003125 66.1078125,53.4548437 63.0995313,52.0664062 C60.09125,50.6779687 56.8515625,50.6779687 53.8432813,51.835 C51.5292188,52.760625 49.6779688,54.3804687 48.2895313,56.2317187 C46.9010938,53.2234375 44.5870313,50.909375 41.57875,49.5209375 C38.5704688,48.1325 35.3307813,48.1325 32.3225,49.2895312 C26.0745313,51.835 22.8348438,59.24 25.3803125,65.719375 L27.2315625,70.3475 C24.9175,69.8846875 22.6034375,69.8846875 20.289375,70.8103125 C14.0414063,73.3557812 10.8017188,80.7607812 13.3471875,87.2401562 L29.7770313,128.893281 L19.8265625,122.876719 C17.0496875,121.025469 13.81,120.099844 10.8017188,120.562656 C7.56203125,121.025469 4.55375,122.876719 2.7025,125.653594 C-1.23140625,131.207344 0.15703125,139.075156 5.479375,143.240469 C7.56203125,145.323125 34.4051563,166.6125 44.1242188,173.554687 C51.2978125,178.645625 60.09125,181.4225 68.8846875,181.4225 C74.6698438,181.4225 80.6864063,180.265469 86.4715625,177.951406 C95.4964063,174.248906 103.132813,168.000937 108.22375,159.670312 C111.000625,161.521562 114.008906,162.91 117.248594,164.067031 C122.570938,165.918281 128.124688,166.843906 133.678438,166.843906 C143.3975,166.843906 152.65375,163.835625 160.521563,158.050469 C170.240625,150.876875 196.852344,128.661875 198.472188,127.273438 C203.794531,123.108125 204.720156,115.008906 200.554844,109.686562 Z M84.1575,172.629062 C71.4301563,177.72 57.7771875,176.331562 47.1325,168.926562 C37.6448438,161.984375 9.87609375,139.769375 9.6446875,139.537969 L9.6446875,139.537969 C6.63640625,137.223906 5.9421875,132.827187 8.02484375,129.5875 C8.95046875,128.199062 10.5703125,127.042031 12.4215625,126.810625 C14.2728125,126.579219 15.8926563,127.042031 17.2810938,127.967656 C17.2810938,127.967656 17.5125,127.967656 17.5125,128.199062 L34.8679688,138.612344 C35.7935938,139.306562 37.1820313,139.075156 38.1076563,138.380937 C39.0332813,137.686719 39.2646875,136.298281 38.801875,135.14125 L19.1323438,85.6203125 C17.7439063,81.9178125 19.36375,77.9839063 22.8348438,76.5954688 C24.2232813,76.1326563 25.843125,76.1326563 27.4629688,76.826875 C29.0828125,77.5210938 30.47125,78.9095313 31.396875,80.529375 L41.8101563,107.3725 C42.2729688,108.529531 43.43,109.22375 44.355625,109.22375 C44.5870313,109.22375 45.0498438,109.22375 45.28125,108.992344 C46.6696875,108.529531 47.3639063,106.678281 46.9010938,105.289844 L36.7192188,79.3723438 L36.7192188,79.1409375 C36.7192188,78.9095313 36.4878125,78.678125 36.4878125,78.4467188 L30.9340625,64.0995313 C29.545625,60.3970313 31.1654688,56.463125 34.6365625,55.0746875 C36.2564063,54.3804688 38.1076563,54.3804688 39.7275,55.0746875 C41.3473438,55.7689063 42.7357813,57.1573438 43.43,59.0085938 L47.1325,68.7276563 L47.1325,68.7276563 L59.165625,99.9675 C59.6284375,101.124531 60.7854688,101.81875 61.7110938,101.81875 C61.9425,101.81875 62.4053125,101.81875 62.6367188,101.587344 C64.0251563,101.124531 64.719375,99.2732812 64.2565625,97.8848437 L52.68625,67.570625 L52.68625,67.570625 L52.4548438,66.8764063 C51.0664063,63.1739063 52.68625,59.24 56.1573438,57.8515625 C57.7771875,57.1573438 59.6284375,57.1573438 61.2482813,57.8515625 C62.868125,58.5457813 64.2565625,59.9342188 64.9507813,61.7854688 L71.19875,77.5210938 L71.19875,77.5210938 C71.19875,77.7525 71.19875,77.7525 71.4301563,77.9839063 L79.7607813,99.9675 C80.2235938,101.355937 82.0748438,102.050156 83.4632813,101.587344 C84.8517188,101.124531 85.5459375,99.2732812 85.083125,97.8848438 L76.5210938,75.90125 C75.1326563,72.19875 76.7525,68.2648438 80.2235938,66.8764063 C81.8434375,66.1821875 83.6946875,66.1821875 85.3145313,66.8764063 C86.934375,67.570625 88.3228125,68.9590625 89.0170313,70.8103125 L107.529531,118.942813 C115.165938,140.695 104.984063,164.298437 84.1575,172.629062 Z M194.769688,122.876719 L194.769688,122.876719 C194.538281,123.108125 166.538125,146.24875 157.050469,153.422344 C146.637188,161.290156 132.29,163.141406 119.33125,158.513281 C116.554375,157.587656 113.7775,156.199219 111.232031,154.579375 C111.463438,154.116562 111.694844,153.65375 111.92625,152.959531 C116.785781,141.620625 117.248594,128.893281 113.083281,117.091562 L113.083281,117.091562 L100.81875,85.6203125 L110.306406,58.5457813 C111.694844,54.8432812 115.62875,52.9920313 119.099844,54.1490625 C120.719688,54.8432813 122.108125,56.0003125 123.03375,57.6201563 C123.727969,59.24 123.959375,61.3226563 123.265156,62.9425 L114.934531,86.5459375 C114.471719,87.934375 115.165938,89.5542187 116.554375,90.2484375 C116.785781,90.2484375 117.248594,90.4798438 117.48,90.4798438 C118.637031,90.4798438 119.794063,89.785625 120.256875,88.6285938 L128.5875,65.0251563 C128.5875,64.79375 128.5875,64.79375 128.818906,64.5623438 L128.818906,64.5623438 L134.604063,48.5953125 C135.9925,44.8928125 139.926406,43.0415625 143.3975,44.1985938 C145.017344,44.8928125 146.405781,46.0498438 147.331406,47.6696875 C148.025625,49.2895313 148.257031,51.3721875 147.562813,53.2234375 L147.562813,53.2234375 L147.331406,53.9176563 L147.331406,53.9176563 L135.761094,87.4715625 C135.298281,88.86 135.9925,90.4798438 137.612344,91.1740625 C137.84375,91.1740625 138.306563,91.4054688 138.537969,91.4054688 C139.695,91.4054688 140.852031,90.71125 141.314844,89.5542188 L153.347969,55.3060938 L156.819063,45.5870313 C158.2075,41.8845313 162.141406,40.0332813 165.6125,41.1903125 C167.232344,41.8845313 168.620781,43.0415625 169.546406,44.6614063 C170.240625,46.28125 170.472031,48.3639063 169.777813,49.98375 L164.686875,63.868125 C164.455469,64.3309375 164.455469,64.5623438 164.224063,65.0251563 C164.224063,65.2565625 164.224063,65.4879688 163.992656,65.4879688 L153.579375,94.1823438 C153.116563,95.5707813 153.810781,97.190625 155.199219,97.8848438 C155.430625,97.8848438 155.893438,98.11625 156.124844,98.11625 C157.281875,98.11625 158.438906,97.4220313 158.901719,96.265 L169.777813,66.1821875 C171.397656,62.9425 175.331563,61.09125 178.339844,62.2482813 C179.959688,62.9425 181.348125,64.0995313 182.27375,65.719375 C182.967969,67.3392188 183.199375,69.421875 182.505156,71.0417188 L167.232344,112.463438 C164.686875,113.389063 162.372813,114.314688 161.215781,114.7775 C146.637188,109.22375 138.769375,115.703125 132.29,120.794063 C131.132969,121.719688 130.901563,123.570938 131.827188,124.727969 C132.752813,125.885 134.604063,126.116406 135.761094,125.190781 C142.009063,120.099844 147.794219,115.240313 160.05875,120.33125 C160.752969,120.562656 161.447188,120.562656 162.141406,120.33125 C162.835625,120.099844 178.802656,113.851875 184.356406,111.537813 C187.364688,110.380781 192.918438,108.760938 195.926719,112.92625 C198.472188,116.165937 197.777969,120.562656 194.769688,122.876719 Z" id="Shape" fill="#69AED4"></path>
                    <path d="M36.950625,29.8514063 L51.2978125,39.1076563 C51.760625,39.3390625 52.2234375,39.5704688 52.9176563,39.5704688 C53.8432813,39.5704688 54.7689063,39.1076563 55.2317188,38.1820313 C56.1573438,36.7935938 55.6945313,35.17375 54.3060938,34.248125 L39.9589063,24.991875 C38.5704688,24.06625 36.950625,24.5290625 36.025,25.9175 C35.099375,27.3059375 35.5621875,28.9257813 36.950625,29.8514063 Z" id="Shape" fill="#9B9B9B"></path>
                    <path d="M70.7359375,27.5373438 C71.19875,28.694375 72.124375,29.3885938 73.5128125,29.3885938 C73.7442188,29.3885938 74.2070313,29.3885938 74.4384375,29.1571875 C75.826875,28.694375 76.7525,27.0745313 76.2896875,25.4546875 L68.421875,2.54546875 C67.9590625,1.15703125 66.3392188,0.23140625 64.719375,0.69421875 C63.3309375,1.15703125 62.4053125,2.776875 62.868125,4.39671875 L70.7359375,27.5373438 Z" id="Shape" fill="#9B9B9B"></path>
                    <path d="M95.7278125,25.4546875 C95.9592188,25.6860937 96.4220313,25.6860937 96.6534375,25.6860937 C97.8104688,25.6860937 98.9675,24.991875 99.1989063,23.8348437 L104.984063,7.8678125 C105.446875,6.479375 104.752656,4.85953125 103.364219,4.1653125 C101.975781,3.7025 100.355938,4.39671875 99.6617188,5.78515625 L93.8765625,21.7521875 C93.41375,23.3720312 94.339375,24.991875 95.7278125,25.4546875 Z" id="Shape" fill="#9B9B9B"></path>
                    <path d="M116.091563,185.125 C114.703125,184.662188 113.083281,185.587813 112.620469,186.97625 L107.760938,203.174688 C107.298125,204.563125 108.22375,206.182969 109.612188,206.645781 C109.843594,206.645781 110.075,206.877187 110.537813,206.877187 C111.694844,206.877187 112.851875,206.182969 113.314688,204.794531 L118.174219,188.596094 C118.405625,187.207656 117.711406,185.587813 116.091563,185.125 Z" id="Shape" fill="#9B9B9B"></path>
                    <path d="M140.157813,180.959688 C139.463594,179.57125 137.84375,178.877031 136.455313,179.339844 C135.066875,180.034063 134.372656,181.653906 134.835469,183.042344 L144.091719,205.48875 C144.554531,206.645781 145.711563,207.34 146.637188,207.34 C147.1,207.34 147.331406,207.34 147.794219,207.108594 C149.182656,206.414375 149.876875,204.794531 149.414063,203.406094 L140.157813,180.959688 Z" id="Shape" fill="#9B9B9B"></path>
                    <path d="M173.943125,175.405938 L159.133125,167.075312 C157.744688,166.381094 156.124844,166.843906 155.199219,168.232344 C154.505,169.620781 154.967813,171.240625 156.35625,172.16625 L171.16625,180.496875 C171.629063,180.728281 172.091875,180.959688 172.554688,180.959688 C173.480313,180.959688 174.405938,180.496875 175.100156,179.57125 C175.794375,177.951406 175.331563,176.331563 173.943125,175.405938 Z" id="Shape" fill="#9B9B9B"></path>
                </g>
            </g>
        </g>
    </g>
</svg>