<?xml version="1.0" encoding="UTF-8"?>
<svg width="63px" height="73px" viewBox="0 0 63 73" version="1.1" xmlns="http://www.w3.org/2000/svg" xmlns:xlink="http://www.w3.org/1999/xlink">
    <!-- Generator: Sketch 42 (36781) - http://www.bohemiancoding.com/sketch -->
    <title>image</title>
    <desc>Created with Sketch.</desc>
    <defs></defs>
    <g id="campaign" stroke="none" stroke-width="1" fill="none" fill-rule="evenodd">
        <g id="Campaign-Overview---Empty----alt" transform="translate(-719.000000, -366.000000)" fill="#CFCFCF">
            <path d="M778.732213,381.418871 C780.218822,382.90548 781.464359,385.878698 781.464359,388.008165 L781.464359,434.293934 C781.464359,436.423401 779.736679,438.151082 777.607212,438.151082 L723.607147,438.151082 C721.477681,438.151082 719.75,436.423401 719.75,434.293934 L719.75,370.008143 C719.75,367.878676 721.477681,366.150996 723.607147,366.150996 L759.60719,366.150996 C761.736657,366.150996 764.709875,367.396533 766.196484,368.883142 L778.732213,381.418871 Z M760.892906,371.615288 L760.892906,386.722449 L776.000067,386.722449 C775.758995,386.039412 775.397388,385.356376 775.116137,385.075125 L762.54023,372.499218 C762.258979,372.217967 761.575943,371.85636 760.892906,371.615288 Z M776.321496,433.008218 L776.321496,391.865312 L759.60719,391.865312 C757.477724,391.865312 755.750043,390.137632 755.750043,388.008165 L755.750043,371.293859 L724.892863,371.293859 L724.892863,433.008218 L776.321496,433.008218 Z M771.178633,415.008197 L771.178633,427.865355 L730.035727,427.865355 L730.035727,420.15106 L737.750021,412.436765 L742.892885,417.579629 L758.321475,402.151039 L771.178633,415.008197 Z M737.750021,407.293902 C733.491088,407.293902 730.035727,403.838541 730.035727,399.579607 C730.035727,395.320673 733.491088,391.865312 737.750021,391.865312 C742.008955,391.865312 745.464316,395.320673 745.464316,399.579607 C745.464316,403.838541 742.008955,407.293902 737.750021,407.293902 Z" id="image"></path>
        </g>
    </g>
</svg>