<?xml version="1.0" encoding="UTF-8"?>
<svg width="123px" height="123px" viewBox="0 0 123 123" version="1.1" xmlns="http://www.w3.org/2000/svg" xmlns:xlink="http://www.w3.org/1999/xlink">
    <!-- Generator: Sketch 42 (36781) - http://www.bohemiancoding.com/sketch -->
    <title>pencil</title>
    <desc>Created with Sketch.</desc>
    <defs></defs>
    <g id="campaign" stroke="none" stroke-width="1" fill="none" fill-rule="evenodd">
        <g id="Campaign-Overview---Empty----alt" transform="translate(-702.000000, -682.000000)" fill="#CFCFCF">
            <path d="M731.873884,794.30692 L739.186384,786.99442 L720.302455,768.110491 L712.989955,775.422991 L712.989955,784.021205 L723.27567,784.021205 L723.27567,794.30692 L731.873884,794.30692 Z M773.90067,719.735491 C773.90067,718.556914 773.31139,717.967634 772.132812,717.967634 C771.597096,717.967634 771.141743,718.155132 770.766741,718.530134 L727.21317,762.083705 C726.838168,762.458707 726.65067,762.91406 726.65067,763.449777 C726.65067,764.628354 727.239949,765.217634 728.418527,765.217634 C728.954244,765.217634 729.409596,765.030136 729.784598,764.655134 L773.33817,721.101562 C773.713172,720.726561 773.90067,720.271208 773.90067,719.735491 Z M769.561384,704.30692 L802.989955,737.735491 L736.132812,804.592634 L702.704241,804.592634 L702.704241,771.164062 L769.561384,704.30692 Z M824.445312,712.021205 C824.445312,714.860505 823.454251,717.271195 821.472098,719.253348 L808.132812,732.592634 L774.704241,699.164062 L788.043527,685.905134 C789.972108,683.869409 792.382798,682.851562 795.27567,682.851562 C798.11497,682.851562 800.552445,683.869409 802.58817,685.905134 L821.472098,704.708705 C823.454251,706.798002 824.445312,709.235477 824.445312,712.021205 Z" id="pencil"></path>
        </g>
    </g>
</svg>