<?xml version="1.0" encoding="UTF-8"?>
<svg width="88px" height="137px" viewBox="0 0 88 137" version="1.1" xmlns="http://www.w3.org/2000/svg" xmlns:xlink="http://www.w3.org/1999/xlink">
    <!-- Generator: Sketch 43.2 (39069) - http://www.bohemiancoding.com/sketch -->
    <title>Group 5</title>
    <desc>Created with Sketch.</desc>
    <defs></defs>
    <g id="Page-1" stroke="none" stroke-width="1" fill="none" fill-rule="evenodd">
        <g id="Group-5" transform="translate(0.283842, -0.500000)" fill-rule="nonzero">
            <g id="noun_1283859_cc" transform="translate(0.000000, 0.976510)">
                <g id="Group">
                    <path d="M42.9575979,130.158829 C38.3336483,130.158829 34.5721124,126.397001 34.5721124,121.773052 C34.5721124,117.149394 38.33394,113.387858 42.9575979,113.387858 C47.5818393,113.387858 51.3433752,117.149977 51.3433752,121.773052 C51.3433752,126.397001 47.5818393,130.158829 42.9575979,130.158829 Z M42.9575979,118.798658 C41.3176698,118.798658 39.9834959,120.13254 39.9834959,121.772468 C39.9834959,123.412688 41.3176698,124.746862 42.9575979,124.746862 C44.5972343,124.746862 45.9316999,123.412688 45.9316999,121.772468 C45.9325752,120.133123 44.5972343,118.798658 42.9575979,118.798658 Z" id="Shape" fill="#9B9B9B"></path>
                    <path d="M86.671996,74.4450349 L86.8167041,14.0200581 C86.8167041,6.31376706 80.5472831,0.0440542871 72.8409921,0.0440542871 C65.1347011,0.0440542871 58.8649883,6.31376706 58.8649883,14.0200581 L58.8649883,31.0801537 C57.1246981,30.0599031 55.1022854,29.4720263 52.9430418,29.4720263 C49.1826729,29.4720263 45.8319213,31.2499523 43.6802633,34.0069921 C41.5466937,31.0296809 38.0611535,29.0842902 34.1277767,29.0842902 C31.9755352,29.0842902 29.9586657,29.668666 28.2221683,30.6830816 L28.2221683,14.0200581 C28.2221683,6.31376706 21.9524555,0.0440542871 14.2461645,0.0440542871 C6.5398735,0.0440542871 0.270160727,6.31376706 0.270160727,14.013056 L0.125160855,74.4377412 C0.125160855,87.4381321 5.89160446,99.1122264 14.9962544,107.051042 L10.0006149,107.051042 C8.38957006,107.051042 7.08311246,108.357208 7.08311246,109.968545 L7.08311246,112.975615 C3.09926286,113.919718 0.125160855,117.504162 0.125160855,121.772468 C0.125160855,126.041066 3.09897111,129.625509 7.08311246,130.569321 L7.08311246,133.576975 C7.08311246,135.18802 8.38957006,136.494477 10.0006149,136.494477 L75.9160397,136.494477 C77.5270845,136.494477 78.8335421,135.18802 78.8335421,133.576975 L78.8335421,130.549774 C78.8335421,130.549774 85.7057191,126.01014 85.7057191,121.772468 C85.7057191,117.535087 82.7745044,113.970483 78.8335421,112.995454 L78.8335421,109.968545 C78.8335421,108.3575 77.5270845,107.051042 75.9160397,107.051042 L71.8020694,107.051042 C80.9061359,99.1142687 86.671996,87.4410496 86.671996,74.4450349 Z M7.08252896,124.205665 C6.39633238,123.616913 5.95958227,122.745747 5.95958227,121.773052 C5.95958227,120.800356 6.39633238,119.929482 7.08252896,119.340438 L7.08252896,124.205665 Z M78.8329586,119.418335 C79.4689741,120.004753 79.8701307,120.841785 79.8701307,121.772468 C79.8701307,122.703443 79.4689741,123.54135 78.8329586,124.127184 L78.8329586,119.418335 Z M47.0301396,41.2193499 C47.0301396,37.9593327 49.6827328,35.3067395 52.9430418,35.3067395 C56.2033508,35.3067395 58.855944,37.959041 58.855944,41.2193499 L58.855944,70.03523 C58.852443,70.0731575 58.8498173,70.1107933 58.8486503,70.1490125 C58.7024834,73.3075007 56.108532,75.7815428 52.9436253,75.7815428 C52.6790078,75.7815428 52.4202254,75.7582028 52.1652357,75.7237762 C52.5022072,74.6305881 52.6845511,73.4700056 52.6845511,72.2677028 C52.6845511,68.0198193 50.4176517,64.2912511 47.0307231,62.2277016 L47.0301396,41.2193499 L47.0301396,41.2193499 Z M34.1277767,34.9192951 C37.3880857,34.9192951 40.0403872,37.5715966 40.0403872,40.8319056 L40.0403872,60.5195039 L28.2151663,60.5195039 L28.2151663,40.8319056 C28.2151663,37.5718884 30.8674677,34.9192951 34.1277767,34.9192951 Z M14.2458727,5.8790592 C18.7350338,5.8790592 22.3868716,9.53118877 22.3868716,14.0200581 L22.3868716,40.5626201 L22.3868716,40.5626201 C22.3848293,40.6524792 22.3801613,40.7417548 22.3801613,40.8321974 L22.3801613,60.5197957 L11.8724845,60.5197957 C9.72957894,60.5197957 7.7208785,61.0992117 5.98934079,62.10575 L6.10487389,14.0203498 C6.10487389,9.53118877 9.75671171,5.8790592 14.2458727,5.8790592 Z M72.9979537,112.886923 L72.9979537,130.660056 L12.9175339,130.660056 L12.9175339,112.886923 L72.9979537,112.886923 L72.9979537,112.886923 Z M61.76236,107.051918 L25.0339216,107.051918 C13.6574125,100.62145 5.95987402,88.4149119 5.95987402,74.4450349 L5.96541727,72.15888 C6.02405907,68.9490438 8.64893603,66.3545089 11.8727762,66.3545089 L40.936644,66.3545089 C44.1966612,66.3545089 46.8492544,69.0068103 46.8492544,72.2671193 C46.8492544,75.5274283 44.1966612,78.1797298 40.936644,78.1797298 L22.8399597,78.1797298 C21.2289149,78.1797298 19.9224573,79.4861874 19.9224573,81.0972323 C19.9224573,82.7085689 21.2289149,84.0147347 22.8399597,84.0147347 L40.936644,84.0147347 C44.0055648,84.0147347 46.8019909,82.8305205 48.8967577,80.8970916 C50.159161,81.3595157 51.5207594,81.6159642 52.9430418,81.6159642 C59.1357325,81.6159642 64.2279413,76.8470147 64.6600234,70.7065473 C64.6801542,70.5679659 64.6903655,70.4267588 64.6903655,70.2832177 L64.6903655,60.1801984 C64.69445,60.1183474 64.6994097,60.0567881 64.6994097,59.9940618 L64.6994097,14.0200581 C64.6994097,9.53118877 68.351831,5.8790592 72.8404086,5.8790592 C77.3289861,5.8790592 80.9811157,9.53118877 80.9811157,14.013056 L80.8364075,74.4377412 C80.836991,88.4125779 73.1391608,100.620867 61.76236,107.051918 Z" id="Shape" fill="#69AED4"></path>
                </g>
            </g>
            <g id="noun_1283859_cc-copy" transform="translate(0.000000, 107.976510)" fill="#9B9B9B">
                <g id="Group">
                    <path d="M42.9575979,23.1588288 C38.3336483,23.1588288 34.5721124,19.3970011 34.5721124,14.7730515 C34.5721124,10.1493936 38.33394,6.3878577 42.9575979,6.3878577 C47.5818393,6.3878577 51.3433752,10.1499771 51.3433752,14.7730515 C51.3433752,19.3970011 47.5818393,23.1588288 42.9575979,23.1588288 Z M42.9575979,11.7986577 C41.3176698,11.7986577 39.9834959,13.1325399 39.9834959,14.772468 C39.9834959,16.4126879 41.3176698,17.7468618 42.9575979,17.7468618 C44.5972343,17.7468618 45.9316999,16.4126879 45.9316999,14.772468 C45.9325752,13.1331234 44.5972343,11.7986577 42.9575979,11.7986577 Z" id="Shape"></path>
                    <path d="M10.0006149,0.0510423611 C8.38957006,0.0510423611 7.08311246,1.35720821 7.08311246,2.96854482 L7.08311246,5.9756146 C3.09926286,6.91971839 0.125160855,10.5041619 0.125160855,14.772468 C0.125160855,19.0410658 3.09897111,22.6255094 7.08311246,23.5693214 L7.08311246,26.5769747 C7.08311246,28.1880195 8.38957006,29.4944771 10.0006149,29.4944771 L75.9160397,29.4944771 C77.5270845,29.4944771 78.8335421,28.1880195 78.8335421,26.5769747 L78.8335421,23.5497741 C78.8335421,23.5497741 85.7057191,19.0101403 85.7057191,14.772468 C85.7057191,10.5350874 82.7745044,6.97048294 78.8335421,5.99545361 L78.8335421,2.96854482 C78.8335421,1.35749996 77.5270845,0.0510423611 75.9160397,0.0510423611 L10.0006149,0.0510423611 Z M7.08252896,17.2056651 C6.39633238,16.6169131 5.95958227,15.7457468 5.95958227,14.7730515 C5.95958227,13.8003562 6.39633238,12.9294817 7.08252896,12.340438 L7.08252896,17.2056651 Z M78.8329586,12.4183353 C79.4689741,13.0047533 79.8701307,13.8417847 79.8701307,14.772468 C79.8701307,15.703443 79.4689741,16.5413497 78.8329586,17.1271842 L78.8329586,12.4183353 Z M72.9979537,5.88692252 L72.9979537,23.6600557 L12.9175339,23.6600557 L12.9175339,5.88692252 L72.9979537,5.88692252 L72.9979537,5.88692252 Z" id="Shape"></path>
                </g>
            </g>
        </g>
    </g>
</svg>