<?xml version="1.0" encoding="UTF-8"?>
<svg width="169px" height="154px" viewBox="0 0 169 154" version="1.1" xmlns="http://www.w3.org/2000/svg" xmlns:xlink="http://www.w3.org/1999/xlink">
    <!-- Generator: Sketch 43.2 (39069) - http://www.bohemiancoding.com/sketch -->
    <title>noun_708318_cc</title>
    <desc>Created with Sketch.</desc>
    <defs></defs>
    <g id="Page-1" stroke="none" stroke-width="1" fill="none" fill-rule="evenodd">
        <g id="noun_708318_cc" transform="translate(0.246094, 0.000000)">
            <g id="Group">
                <path d="M129.814452,117.190108 L4.91510737,117.190108 C2.24457305,117.190108 0.0816609666,119.35302 0.0816609666,122.023555 C0.0816609666,124.694089 2.24457305,126.857001 4.91510737,126.857001 L14.6636611,126.857001 L14.6636611,148.095473 L11.8099414,148.095473 C10.6688949,148.095473 9.74855377,149.018022 9.74855377,150.159068 C9.74855377,151.297908 10.6688949,152.220456 11.8099414,152.220456 L24.1738532,152.220456 C25.3148996,152.220456 26.2352408,151.297908 26.2352408,150.159068 C26.2352408,149.018022 25.3148996,148.095473 24.1738532,148.095473 L22.589189,148.095473 L22.589189,126.857001 L111.350246,126.857001 L111.350246,148.095473 L109.132157,148.095473 C107.991111,148.095473 107.070769,149.018022 107.070769,150.159068 C107.070769,151.297908 107.991111,152.220456 109.132157,152.220456 L121.496069,152.220456 C122.637115,152.220456 123.557457,151.297908 123.557457,150.159068 C123.557457,149.018022 122.637115,148.095473 121.496069,148.095473 L119.275773,148.095473 L119.275773,126.857001 L129.816659,126.857001 C132.487194,126.857001 134.650106,124.694089 134.650106,122.023555 C134.650106,119.35302 132.484987,117.190108 129.814452,117.190108 Z" id="Shape" fill="#9B9B9B" fill-rule="nonzero"></path>
                <circle id="Oval" fill="#69AED4" fill-rule="nonzero" cx="22.5869819" cy="97.9048778" r="14.8976088"></circle>
                <path d="M168.727006,148.733312 C168.727006,148.896634 168.693901,149.051127 168.680658,149.210035 C168.680658,149.256383 168.689486,149.287282 168.689486,149.33363 L168.727006,148.733312 Z" id="Shape" fill="#000000" fill-rule="nonzero"></path>
                <path d="M158.901206,143.659297 L153.493925,103.349678 C153.496133,103.294502 153.511582,103.241532 153.511582,103.186356 C153.511582,102.310156 153.357088,101.473683 153.134176,100.663694 L153.098863,100.403262 L153.061343,100.431954 C151.869534,96.4747073 148.238932,93.5746395 143.895451,93.5746395 L110.53805,93.5746395 L60.3297979,86.1964608 L61.8968056,62.8237679 L45.8868421,60.7623803 L39.0560126,100.789496 L39.0979466,100.774047 C38.8971047,101.55093 38.7558533,102.347676 38.7558533,103.186356 C38.7558533,108.498733 43.059607,112.802487 48.3697768,112.802487 L136.23477,112.802487 L144.621572,146.34528 L144.623779,146.34528 C144.239752,147.058158 144.003597,147.863733 144.003597,148.731105 C144.003597,151.531855 146.270241,153.802913 149.075405,153.802913 L163.657405,153.802913 C166.29042,153.802913 168.435675,151.781252 168.680658,149.207828 C168.579134,145.488944 164.226825,148.320593 158.901206,143.659297 Z" id="Shape" fill="#69AED4" fill-rule="nonzero"></path>
                <path d="M58.5663624,59.336624 C74.7595114,59.336624 87.8892706,46.2090718 87.8892706,30.0137158 C87.8892706,13.8183598 74.7595114,0.688600583 58.5663624,0.688600583 C42.3710064,0.688600583 29.2456613,13.8161527 29.2456613,30.0115087 C29.2456613,46.2068648 42.3710064,59.336624 58.5663624,59.336624 Z M58.4493886,26.0101214 C60.3518684,26.0101214 61.8968056,27.5528515 61.8968056,29.4553313 C61.8968056,31.3578112 60.3540755,32.9027484 58.4493886,32.9027484 C56.5491158,32.9027484 55.0041786,31.3600182 55.0041786,29.4553313 C55.0063857,27.5528515 56.5491158,26.0101214 58.4493886,26.0101214 Z" id="Shape" fill="#9B9B9B" fill-rule="nonzero"></path>
                <circle id="Oval" cx="58.4493886" cy="29.4553313" r="3.44520997"></circle>
            </g>
        </g>
    </g>
</svg>