<?xml version="1.0" encoding="UTF-8"?>
<svg width="138px" height="31px" viewBox="0 0 138 31" version="1.1" xmlns="http://www.w3.org/2000/svg" xmlns:xlink="http://www.w3.org/1999/xlink">
    <!-- Generator: Sketch 42 (36781) - http://www.bohemiancoding.com/sketch -->
    <title>cp-filters</title>
    <desc>Created with Sketch.</desc>
    <defs>
        <linearGradient x1="50%" y1="0%" x2="50%" y2="100%" id="linearGradient-1">
            <stop stop-color="#FBDA61" offset="0%"></stop>
            <stop stop-color="#F76B1C" offset="100%"></stop>
        </linearGradient>
    </defs>
    <g id="Page-1" stroke="none" stroke-width="1" fill="none" fill-rule="evenodd">
        <g id="Artboard" transform="translate(-631.000000, -325.000000)">
            <g id="cp-filters" transform="translate(631.000000, 326.000000)">
                <rect id="Rectangle-3-Copy" fill="url(#linearGradient-1)" x="0.5546875" y="5.68434189e-14" width="137" height="30" rx="3"></rect>
                <path d="M22.7918527,9.24553571 C22.9056925,9.52009066 22.858818,9.75446331 22.6512277,9.94866071 L17.6992187,14.9006696 L17.6992187,22.3537946 C17.6992187,22.635046 17.5686397,22.8325887 17.3074777,22.9464286 C17.2204237,22.9799109 17.1367192,22.9966518 17.0563616,22.9966518 C16.8755571,22.9966518 16.724889,22.9330364 16.6043527,22.8058036 L14.0329241,20.234375 C13.9056913,20.1071422 13.8420759,19.9564741 13.8420759,19.7823661 L13.8420759,14.9006696 L8.89006696,9.94866071 C8.68247664,9.75446331 8.63560211,9.52009066 8.74944196,9.24553571 C8.86328182,8.98437369 9.06082449,8.85379464 9.34207589,8.85379464 L22.1992187,8.85379464 C22.4804702,8.85379464 22.6780128,8.98437369 22.7918527,9.24553571 Z" id="" fill="#FFFFFF"></path>
                <path d="M128.541295,16.6986607 C128.541295,16.5245527 128.477679,16.3738846 128.350446,16.2466518 L126.532366,14.4285714 L128.350446,12.6104911 C128.477679,12.4832583 128.541295,12.3325902 128.541295,12.1584821 C128.541295,11.9776777 128.477679,11.8236614 128.350446,11.6964286 L127.446429,10.7924107 C127.319196,10.6651779 127.165179,10.6015625 126.984375,10.6015625 C126.810267,10.6015625 126.659599,10.6651779 126.532366,10.7924107 L124.714286,12.6104911 L122.896205,10.7924107 C122.768973,10.6651779 122.618304,10.6015625 122.444196,10.6015625 C122.263392,10.6015625 122.109376,10.6651779 121.982143,10.7924107 L121.078125,11.6964286 C120.950892,11.8236614 120.887277,11.9776777 120.887277,12.1584821 C120.887277,12.3325902 120.950892,12.4832583 121.078125,12.6104911 L122.896205,14.4285714 L121.078125,16.2466518 C120.950892,16.3738846 120.887277,16.5245527 120.887277,16.6986607 C120.887277,16.8794652 120.950892,17.0334815 121.078125,17.1607143 L121.982143,18.0647321 C122.109376,18.1919649 122.263392,18.2555804 122.444196,18.2555804 C122.618304,18.2555804 122.768973,18.1919649 122.896205,18.0647321 L124.714286,16.2466518 L126.532366,18.0647321 C126.659599,18.1919649 126.810267,18.2555804 126.984375,18.2555804 C127.165179,18.2555804 127.319196,18.1919649 127.446429,18.0647321 L128.350446,17.1607143 C128.477679,17.0334815 128.541295,16.8794652 128.541295,16.6986607 Z M132.428571,14.4285714 C132.428571,15.828132 132.083709,17.1188557 131.393973,18.3007813 C130.704238,19.4827068 129.768421,20.4185233 128.586496,21.1082589 C127.40457,21.7979945 126.113846,22.1428571 124.714286,22.1428571 C123.314725,22.1428571 122.024001,21.7979945 120.842076,21.1082589 C119.66015,20.4185233 118.724334,19.4827068 118.034598,18.3007813 C117.344863,17.1188557 117,15.828132 117,14.4285714 C117,13.0290109 117.344863,11.7382872 118.034598,10.5563616 C118.724334,9.37443605 119.66015,8.43861952 120.842076,7.74888393 C122.024001,7.05914834 123.314725,6.71428571 124.714286,6.71428571 C126.113846,6.71428571 127.40457,7.05914834 128.586496,7.74888393 C129.768421,8.43861952 130.704238,9.37443605 131.393973,10.5563616 C132.083709,11.7382872 132.428571,13.0290109 132.428571,14.4285714 Z" id="" fill="#FFFFFF"></path>
                <path d="M111,0.5 L111,28.7842712" id="Line" stroke="#FFFFFF" stroke-width="2" stroke-linecap="square"></path>
            </g>
        </g>
    </g>
</svg>