<?xml version="1.0" encoding="UTF-8"?>
<svg width="98px" height="23px" viewBox="0 0 98 23" version="1.1" xmlns="http://www.w3.org/2000/svg" xmlns:xlink="http://www.w3.org/1999/xlink">
    <!-- Generator: Sketch 42 (36781) - http://www.bohemiancoding.com/sketch -->
    <title>cp-numbers</title>
    <desc>Created with Sketch.</desc>
    <defs></defs>
    <g id="Page-1" stroke="none" stroke-width="1" fill="none" fill-rule="evenodd">
        <g id="Artboard" transform="translate(-447.000000, -533.000000)">
            <g id="cp-numbers" transform="translate(447.000000, 533.000000)">
                <path d="M20.8371563,7.624 C20.8371563,8.77600576 20.9811548,9.59999752 21.2691562,10.096 C21.5571577,10.5920025 22.0371529,10.84 22.7091562,10.84 C23.3971597,10.84 23.8851548,10.5920025 24.1731562,10.096 C24.4611577,9.59999752 24.6051562,8.77600576 24.6051562,7.624 C24.6051562,7.1439976 24.5811565,6.69600208 24.5331562,6.28 C24.485156,5.86399792 24.3931569,5.50800148 24.2571562,5.212 C24.1211556,4.91599852 23.9291575,4.68400084 23.6811563,4.516 C23.433155,4.34799916 23.1091583,4.264 22.7091562,4.264 C22.2931542,4.264 21.9611575,4.34799916 21.7131562,4.516 C21.465155,4.68400084 21.2771569,4.91999848 21.1491562,5.224 C21.0211556,5.52800152 20.9371564,5.88399796 20.8971563,6.292 C20.8571561,6.70000204 20.8371563,7.1439976 20.8371563,7.624 Z M21.1011562,15.04 C21.1011562,15.6800032 21.2171551,16.1799982 21.4491562,16.54 C21.6811574,16.9000018 22.0851534,17.08 22.6611562,17.08 C23.1251586,17.08 23.4931549,16.9720011 23.7651563,16.756 C24.0371576,16.5399989 24.2491555,16.2400019 24.4011562,15.856 C24.553157,15.4719981 24.653156,15.0160026 24.7011562,14.488 C24.7491565,13.9599974 24.7731562,13.3840031 24.7731562,12.76 L24.7731562,11.944 L24.7251562,11.944 C24.4371548,12.3760022 24.0251589,12.7239987 23.4891563,12.988 C22.9531536,13.2520013 22.3011601,13.384 21.5331562,13.384 C20.7811525,13.384 20.1411589,13.2520013 19.6131562,12.988 C19.0851536,12.7239987 18.6571579,12.3560024 18.3291562,11.884 C18.0011546,11.4119976 17.761157,10.8520032 17.6091563,10.204 C17.4571555,9.55599676 17.3811563,8.84800384 17.3811563,8.08 C17.3811563,6.11199016 17.8171519,4.6080052 18.6891562,3.568 C19.5611606,2.5279948 20.9571467,2.008 22.8771562,2.008 C24.0611622,2.008 25.0051527,2.2279978 25.7091562,2.668 C26.4131598,3.1080022 26.9531544,3.69199636 27.3291562,4.42 C27.7051581,5.14800364 27.9491557,5.9919952 28.0611563,6.952 C28.1731568,7.9120048 28.2291563,8.9119948 28.2291563,9.952 C28.2291563,11.1680061 28.1931566,12.3399944 28.1211563,13.468 C28.0491559,14.5960056 27.8331581,15.5919957 27.4731562,16.456 C27.1131545,17.3200043 26.5451601,18.0039975 25.7691562,18.508 C24.9931524,19.0120025 23.9091632,19.264 22.5171562,19.264 C21.9091532,19.264 21.3211591,19.2040006 20.7531563,19.084 C20.1851534,18.9639994 19.6851584,18.7400016 19.2531563,18.412 C18.8211541,18.0839984 18.4731576,17.6440028 18.2091562,17.092 C17.9451549,16.5399972 17.8051563,15.8560041 17.7891563,15.04 L21.1011562,15.04 Z M33.0291563,15.256 L29.8611563,15.256 L29.8611563,19 L31.1091563,19 L31.1091563,19.312 C31.1091563,19.7600022 31.0051573,20.1679982 30.7971563,20.536 C30.5891552,20.9040018 30.2771583,21.1279996 29.8611563,21.208 L29.8611563,22.888 C30.5011594,22.8239997 31.0251542,22.6680012 31.4331563,22.42 C31.8411583,22.1719988 32.1651551,21.852002 32.4051563,21.46 C32.6451574,21.067998 32.8091558,20.6040027 32.8971563,20.068 C32.9851567,19.5319973 33.0291563,18.968003 33.0291563,18.376 L33.0291563,15.256 Z M38.1171562,7.624 C38.1171562,8.77600576 38.2611548,9.59999752 38.5491563,10.096 C38.8371577,10.5920025 39.3171529,10.84 39.9891563,10.84 C40.6771597,10.84 41.1651548,10.5920025 41.4531563,10.096 C41.7411577,9.59999752 41.8851563,8.77600576 41.8851563,7.624 C41.8851563,7.1439976 41.8611565,6.69600208 41.8131563,6.28 C41.765156,5.86399792 41.6731569,5.50800148 41.5371563,5.212 C41.4011556,4.91599852 41.2091575,4.68400084 40.9611562,4.516 C40.713155,4.34799916 40.3891582,4.264 39.9891563,4.264 C39.5731542,4.264 39.2411575,4.34799916 38.9931562,4.516 C38.745155,4.68400084 38.5571569,4.91999848 38.4291563,5.224 C38.3011556,5.52800152 38.2171565,5.88399796 38.1771562,6.292 C38.137156,6.70000204 38.1171562,7.1439976 38.1171562,7.624 Z M38.3811563,15.04 C38.3811563,15.6800032 38.4971551,16.1799982 38.7291563,16.54 C38.9611574,16.9000018 39.3651534,17.08 39.9411563,17.08 C40.4051586,17.08 40.7731549,16.9720011 41.0451562,16.756 C41.3171576,16.5399989 41.5291555,16.2400019 41.6811563,15.856 C41.833157,15.4719981 41.933156,15.0160026 41.9811563,14.488 C42.0291565,13.9599974 42.0531563,13.3840031 42.0531563,12.76 L42.0531563,11.944 L42.0051563,11.944 C41.7171548,12.3760022 41.3051589,12.7239987 40.7691562,12.988 C40.2331536,13.2520013 39.5811601,13.384 38.8131563,13.384 C38.0611525,13.384 37.4211589,13.2520013 36.8931563,12.988 C36.3651536,12.7239987 35.9371579,12.3560024 35.6091563,11.884 C35.2811546,11.4119976 35.041157,10.8520032 34.8891562,10.204 C34.7371555,9.55599676 34.6611562,8.84800384 34.6611562,8.08 C34.6611562,6.11199016 35.0971519,4.6080052 35.9691562,3.568 C36.8411606,2.5279948 38.2371466,2.008 40.1571563,2.008 C41.3411622,2.008 42.2851527,2.2279978 42.9891563,2.668 C43.6931598,3.1080022 44.2331544,3.69199636 44.6091563,4.42 C44.9851581,5.14800364 45.2291557,5.9919952 45.3411562,6.952 C45.4531568,7.9120048 45.5091562,8.9119948 45.5091562,9.952 C45.5091562,11.1680061 45.4731566,12.3399944 45.4011562,13.468 C45.3291559,14.5960056 45.113158,15.5919957 44.7531563,16.456 C44.3931544,17.3200043 43.8251601,18.0039975 43.0491563,18.508 C42.2731524,19.0120025 41.1891632,19.264 39.7971563,19.264 C39.1891532,19.264 38.6011591,19.2040006 38.0331562,19.084 C37.4651534,18.9639994 36.9651584,18.7400016 36.5331562,18.412 C36.1011541,18.0839984 35.7531576,17.6440028 35.4891563,17.092 C35.2251549,16.5399972 35.0851563,15.8560041 35.0691562,15.04 L38.3811563,15.04 Z M49.6371562,7.624 C49.6371562,8.77600576 49.7811548,9.59999752 50.0691562,10.096 C50.3571577,10.5920025 50.8371529,10.84 51.5091562,10.84 C52.1971597,10.84 52.6851548,10.5920025 52.9731562,10.096 C53.2611577,9.59999752 53.4051563,8.77600576 53.4051563,7.624 C53.4051563,7.1439976 53.3811565,6.69600208 53.3331563,6.28 C53.285156,5.86399792 53.1931569,5.50800148 53.0571562,5.212 C52.9211556,4.91599852 52.7291575,4.68400084 52.4811563,4.516 C52.233155,4.34799916 51.9091583,4.264 51.5091562,4.264 C51.0931542,4.264 50.7611575,4.34799916 50.5131563,4.516 C50.265155,4.68400084 50.0771569,4.91999848 49.9491562,5.224 C49.8211556,5.52800152 49.7371564,5.88399796 49.6971562,6.292 C49.6571561,6.70000204 49.6371562,7.1439976 49.6371562,7.624 Z M49.9011562,15.04 C49.9011562,15.6800032 50.0171551,16.1799982 50.2491562,16.54 C50.4811574,16.9000018 50.8851534,17.08 51.4611562,17.08 C51.9251586,17.08 52.2931549,16.9720011 52.5651562,16.756 C52.8371576,16.5399989 53.0491555,16.2400019 53.2011562,15.856 C53.353157,15.4719981 53.453156,15.0160026 53.5011563,14.488 C53.5491565,13.9599974 53.5731563,13.3840031 53.5731563,12.76 L53.5731563,11.944 L53.5251563,11.944 C53.2371548,12.3760022 52.8251589,12.7239987 52.2891563,12.988 C51.7531536,13.2520013 51.1011601,13.384 50.3331563,13.384 C49.5811525,13.384 48.9411589,13.2520013 48.4131562,12.988 C47.8851536,12.7239987 47.4571579,12.3560024 47.1291562,11.884 C46.8011546,11.4119976 46.561157,10.8520032 46.4091563,10.204 C46.2571555,9.55599676 46.1811563,8.84800384 46.1811563,8.08 C46.1811563,6.11199016 46.6171519,4.6080052 47.4891563,3.568 C48.3611606,2.5279948 49.7571466,2.008 51.6771562,2.008 C52.8611622,2.008 53.8051527,2.2279978 54.5091562,2.668 C55.2131598,3.1080022 55.7531544,3.69199636 56.1291562,4.42 C56.5051581,5.14800364 56.7491557,5.9919952 56.8611563,6.952 C56.9731568,7.9120048 57.0291563,8.9119948 57.0291563,9.952 C57.0291563,11.1680061 56.9931566,12.3399944 56.9211563,13.468 C56.8491559,14.5960056 56.6331581,15.5919957 56.2731562,16.456 C55.9131544,17.3200043 55.3451601,18.0039975 54.5691562,18.508 C53.7931524,19.0120025 52.7091632,19.264 51.3171562,19.264 C50.7091532,19.264 50.1211591,19.2040006 49.5531563,19.084 C48.9851534,18.9639994 48.4851584,18.7400016 48.0531563,18.412 C47.6211541,18.0839984 47.2731576,17.6440028 47.0091562,17.092 C46.7451549,16.5399972 46.6051563,15.8560041 46.5891562,15.04 L49.9011562,15.04 Z M61.1571563,7.624 C61.1571563,8.77600576 61.3011548,9.59999752 61.5891562,10.096 C61.8771577,10.5920025 62.3571529,10.84 63.0291563,10.84 C63.7171597,10.84 64.2051548,10.5920025 64.4931562,10.096 C64.7811577,9.59999752 64.9251562,8.77600576 64.9251562,7.624 C64.9251562,7.1439976 64.9011565,6.69600208 64.8531562,6.28 C64.805156,5.86399792 64.7131569,5.50800148 64.5771563,5.212 C64.4411556,4.91599852 64.2491575,4.68400084 64.0011563,4.516 C63.753155,4.34799916 63.4291583,4.264 63.0291563,4.264 C62.6131542,4.264 62.2811575,4.34799916 62.0331562,4.516 C61.785155,4.68400084 61.5971569,4.91999848 61.4691562,5.224 C61.3411556,5.52800152 61.2571565,5.88399796 61.2171563,6.292 C61.1771561,6.70000204 61.1571563,7.1439976 61.1571563,7.624 Z M61.4211562,15.04 C61.4211562,15.6800032 61.5371551,16.1799982 61.7691562,16.54 C62.0011574,16.9000018 62.4051534,17.08 62.9811563,17.08 C63.4451586,17.08 63.8131549,16.9720011 64.0851563,16.756 C64.3571576,16.5399989 64.5691555,16.2400019 64.7211562,15.856 C64.873157,15.4719981 64.973156,15.0160026 65.0211562,14.488 C65.0691565,13.9599974 65.0931562,13.3840031 65.0931562,12.76 L65.0931562,11.944 L65.0451562,11.944 C64.7571548,12.3760022 64.3451589,12.7239987 63.8091563,12.988 C63.2731536,13.2520013 62.6211601,13.384 61.8531562,13.384 C61.1011525,13.384 60.4611589,13.2520013 59.9331563,12.988 C59.4051536,12.7239987 58.9771579,12.3560024 58.6491562,11.884 C58.3211546,11.4119976 58.081157,10.8520032 57.9291563,10.204 C57.7771555,9.55599676 57.7011562,8.84800384 57.7011562,8.08 C57.7011562,6.11199016 58.1371519,4.6080052 59.0091562,3.568 C59.8811606,2.5279948 61.2771467,2.008 63.1971562,2.008 C64.3811622,2.008 65.3251527,2.2279978 66.0291563,2.668 C66.7331598,3.1080022 67.2731544,3.69199636 67.6491563,4.42 C68.0251581,5.14800364 68.2691557,5.9919952 68.3811563,6.952 C68.4931568,7.9120048 68.5491563,8.9119948 68.5491563,9.952 C68.5491563,11.1680061 68.5131566,12.3399944 68.4411562,13.468 C68.3691559,14.5960056 68.1531581,15.5919957 67.7931563,16.456 C67.4331544,17.3200043 66.8651601,18.0039975 66.0891562,18.508 C65.3131524,19.0120025 64.2291632,19.264 62.8371563,19.264 C62.2291532,19.264 61.6411591,19.2040006 61.0731563,19.084 C60.5051534,18.9639994 60.0051584,18.7400016 59.5731563,18.412 C59.1411541,18.0839984 58.7931576,17.6440028 58.5291563,17.092 C58.2651549,16.5399972 58.1251563,15.8560041 58.1091563,15.04 L61.4211562,15.04 Z M73.3491562,15.256 L70.1811562,15.256 L70.1811562,19 L73.3491562,19 L73.3491562,15.256 Z M78.4371563,7.624 C78.4371563,8.77600576 78.5811548,9.59999752 78.8691562,10.096 C79.1571577,10.5920025 79.6371529,10.84 80.3091563,10.84 C80.9971597,10.84 81.4851548,10.5920025 81.7731563,10.096 C82.0611577,9.59999752 82.2051562,8.77600576 82.2051562,7.624 C82.2051562,7.1439976 82.1811565,6.69600208 82.1331562,6.28 C82.085156,5.86399792 81.9931569,5.50800148 81.8571563,5.212 C81.7211556,4.91599852 81.5291575,4.68400084 81.2811562,4.516 C81.033155,4.34799916 80.7091582,4.264 80.3091563,4.264 C79.8931542,4.264 79.5611575,4.34799916 79.3131563,4.516 C79.065155,4.68400084 78.8771569,4.91999848 78.7491562,5.224 C78.6211556,5.52800152 78.5371564,5.88399796 78.4971562,6.292 C78.457156,6.70000204 78.4371563,7.1439976 78.4371563,7.624 Z M78.7011562,15.04 C78.7011562,15.6800032 78.8171551,16.1799982 79.0491563,16.54 C79.2811574,16.9000018 79.6851534,17.08 80.2611562,17.08 C80.7251586,17.08 81.0931549,16.9720011 81.3651563,16.756 C81.6371576,16.5399989 81.8491555,16.2400019 82.0011563,15.856 C82.153157,15.4719981 82.253156,15.0160026 82.3011562,14.488 C82.3491565,13.9599974 82.3731562,13.3840031 82.3731562,12.76 L82.3731562,11.944 L82.3251562,11.944 C82.0371548,12.3760022 81.6251589,12.7239987 81.0891562,12.988 C80.5531536,13.2520013 79.9011601,13.384 79.1331562,13.384 C78.3811525,13.384 77.7411589,13.2520013 77.2131562,12.988 C76.6851536,12.7239987 76.2571579,12.3560024 75.9291563,11.884 C75.6011546,11.4119976 75.361157,10.8520032 75.2091562,10.204 C75.0571555,9.55599676 74.9811563,8.84800384 74.9811563,8.08 C74.9811563,6.11199016 75.4171519,4.6080052 76.2891563,3.568 C77.1611606,2.5279948 78.5571467,2.008 80.4771563,2.008 C81.6611622,2.008 82.6051527,2.2279978 83.3091563,2.668 C84.0131598,3.1080022 84.5531544,3.69199636 84.9291563,4.42 C85.3051581,5.14800364 85.5491557,5.9919952 85.6611562,6.952 C85.7731568,7.9120048 85.8291562,8.9119948 85.8291562,9.952 C85.8291562,11.1680061 85.7931566,12.3399944 85.7211563,13.468 C85.6491559,14.5960056 85.433158,15.5919957 85.0731563,16.456 C84.7131545,17.3200043 84.1451601,18.0039975 83.3691562,18.508 C82.5931524,19.0120025 81.5091632,19.264 80.1171562,19.264 C79.5091532,19.264 78.9211591,19.2040006 78.3531562,19.084 C77.7851534,18.9639994 77.2851584,18.7400016 76.8531562,18.412 C76.4211541,18.0839984 76.0731576,17.6440028 75.8091563,17.092 C75.5451549,16.5399972 75.4051563,15.8560041 75.3891563,15.04 L78.7011562,15.04 Z M89.9571563,7.624 C89.9571563,8.77600576 90.1011548,9.59999752 90.3891563,10.096 C90.6771577,10.5920025 91.1571529,10.84 91.8291562,10.84 C92.5171597,10.84 93.0051548,10.5920025 93.2931563,10.096 C93.5811577,9.59999752 93.7251563,8.77600576 93.7251563,7.624 C93.7251563,7.1439976 93.7011565,6.69600208 93.6531562,6.28 C93.605156,5.86399792 93.5131569,5.50800148 93.3771562,5.212 C93.2411556,4.91599852 93.0491575,4.68400084 92.8011562,4.516 C92.553155,4.34799916 92.2291582,4.264 91.8291562,4.264 C91.4131542,4.264 91.0811575,4.34799916 90.8331563,4.516 C90.585155,4.68400084 90.3971569,4.91999848 90.2691563,5.224 C90.1411556,5.52800152 90.0571564,5.88399796 90.0171562,6.292 C89.977156,6.70000204 89.9571563,7.1439976 89.9571563,7.624 Z M90.2211563,15.04 C90.2211563,15.6800032 90.3371551,16.1799982 90.5691562,16.54 C90.8011574,16.9000018 91.2051534,17.08 91.7811562,17.08 C92.2451586,17.08 92.6131549,16.9720011 92.8851563,16.756 C93.1571576,16.5399989 93.3691555,16.2400019 93.5211562,15.856 C93.673157,15.4719981 93.773156,15.0160026 93.8211563,14.488 C93.8691565,13.9599974 93.8931562,13.3840031 93.8931562,12.76 L93.8931562,11.944 L93.8451562,11.944 C93.5571548,12.3760022 93.1451589,12.7239987 92.6091562,12.988 C92.0731536,13.2520013 91.4211601,13.384 90.6531562,13.384 C89.9011525,13.384 89.2611589,13.2520013 88.7331562,12.988 C88.2051536,12.7239987 87.7771579,12.3560024 87.4491562,11.884 C87.1211546,11.4119976 86.881157,10.8520032 86.7291562,10.204 C86.5771555,9.55599676 86.5011563,8.84800384 86.5011563,8.08 C86.5011563,6.11199016 86.9371519,4.6080052 87.8091563,3.568 C88.6811606,2.5279948 90.0771467,2.008 91.9971562,2.008 C93.1811622,2.008 94.1251527,2.2279978 94.8291562,2.668 C95.5331598,3.1080022 96.0731544,3.69199636 96.4491562,4.42 C96.8251581,5.14800364 97.0691557,5.9919952 97.1811562,6.952 C97.2931568,7.9120048 97.3491562,8.9119948 97.3491562,9.952 C97.3491562,11.1680061 97.3131566,12.3399944 97.2411563,13.468 C97.1691559,14.5960056 96.953158,15.5919957 96.5931562,16.456 C96.2331545,17.3200043 95.6651601,18.0039975 94.8891563,18.508 C94.1131524,19.0120025 93.0291632,19.264 91.6371562,19.264 C91.0291532,19.264 90.4411591,19.2040006 89.8731562,19.084 C89.3051534,18.9639994 88.8051584,18.7400016 88.3731562,18.412 C87.9411541,18.0839984 87.5931576,17.6440028 87.3291562,17.092 C87.0651549,16.5399972 86.9251563,15.8560041 86.9091563,15.04 L90.2211563,15.04 Z" id="9,999.99" fill="#9B9B9B"></path>
                <path d="M4.92,19.264 C3.92799504,19.1839996 3.12400308,19.0120013 2.508,18.748 C1.89199692,18.4839987 1.41600168,18.1320022 1.08,17.692 C0.74399832,17.2519978 0.5160006,16.7520028 0.396,16.192 C0.2759994,15.6319972 0.216,15.0400031 0.216,14.416 L0.216,13.912 L3.528,13.912 C3.528,14.2480017 3.53999988,14.5719984 3.564,14.884 C3.58800012,15.1960016 3.64799952,15.4799987 3.744,15.736 C3.84000048,15.9920013 3.97999908,16.2119991 4.164,16.396 C4.34800092,16.5800009 4.5999984,16.7119996 4.92,16.792 L4.92,11.944 L3.72,11.512 C2.55199416,11.0959979 1.71200256,10.5000039 1.2,9.724 C0.68799744,8.94799612 0.432,8.00800552 0.432,6.904 C0.432,5.41599256 0.81999612,4.26800404 1.596,3.46 C2.37200388,2.65199596 3.4799928,2.1680008 4.92,2.008 L4.92,0.352 L6.456,0.352 L6.456,2.008 C7.35200448,2.0880004 8.08399716,2.2679986 8.652,2.548 C9.22000284,2.8280014 9.67199832,3.17599792 10.008,3.592 C10.3440017,4.00800208 10.5759994,4.47199744 10.704,4.984 C10.8320006,5.49600256 10.896,6.01599736 10.896,6.544 L10.896,6.88 L7.584,6.88 C7.56799992,6.27199696 7.4800008,5.76400204 7.32,5.356 C7.1599992,4.94799796 6.87200208,4.68000064 6.456,4.552 L6.456,9.088 L8.352,9.856 C8.80000224,10.048001 9.2039982,10.2559989 9.564,10.48 C9.9240018,10.7040011 10.2319987,10.9799984 10.488,11.308 C10.7440013,11.6360016 10.9439993,12.0319977 11.088,12.496 C11.2320007,12.9600023 11.304,13.5279966 11.304,14.2 C11.304,15.9280086 10.8920041,17.1759962 10.068,17.944 C9.24399588,18.7120038 8.04000792,19.1519994 6.456,19.264 L6.456,21.352 L4.92,21.352 L4.92,19.264 Z M4.92,4.552 C4.13599608,4.77600112 3.744,5.38399504 3.744,6.376 C3.744,7.27200448 4.13599608,7.94399776 4.92,8.392 L4.92,4.552 Z M6.456,16.792 C6.95200248,16.6799994 7.30799892,16.4440018 7.524,16.084 C7.74000108,15.7239982 7.848,15.3200022 7.848,14.872 C7.848,14.263997 7.73200116,13.7840018 7.5,13.432 C7.26799884,13.0799982 6.92000232,12.7840012 6.456,12.544 L6.456,16.792 Z" id="$" fill="#CCCCCC"></path>
            </g>
        </g>
    </g>
</svg>