<?xml version="1.0" encoding="UTF-8"?>
<svg width="9px" height="5px" viewBox="0 0 9 5" version="1.1" xmlns="http://www.w3.org/2000/svg" xmlns:xlink="http://www.w3.org/1999/xlink">
    <!-- Generator: Sketch 40.3 (33839) - http://www.bohemiancoding.com/sketch -->
    <title></title>
    <desc>Created with Sketch.</desc>
    <defs></defs>
    <g id="Page-1" stroke="none" stroke-width="1" fill="none" fill-rule="evenodd">
        <path d="M8.5,0.5 C8.5,0.635417344 8.45052133,0.752603672 8.3515625,0.8515625 L4.8515625,4.3515625 C4.75260367,4.45052133 4.63541734,4.5 4.5,4.5 C4.36458266,4.5 4.24739633,4.45052133 4.1484375,4.3515625 L0.6484375,0.8515625 C0.549478672,0.752603672 0.5,0.635417344 0.5,0.5 C0.5,0.364582656 0.549478672,0.247396328 0.6484375,0.1484375 C0.747396328,0.0494786719 0.864582656,0 1,0 L8,0 C8.13541734,0 8.25260367,0.0494786719 8.3515625,0.1484375 C8.45052133,0.247396328 8.5,0.364582656 8.5,0.5 L8.5,0.5 Z" id="" fill="#9B9B9B"></path>
    </g>
</svg>