<?xml version="1.0" encoding="UTF-8"?>
<svg width="13px" height="15px" viewBox="0 0 13 15" version="1.1" xmlns="http://www.w3.org/2000/svg" xmlns:xlink="http://www.w3.org/1999/xlink">
    <!-- Generator: Sketch 40.3 (33839) - http://www.bohemiancoding.com/sketch -->
    <title>calendar</title>
    <desc>Created with Sketch.</desc>
    <defs></defs>
    <g id="Icons" stroke="none" stroke-width="1" fill="none" fill-rule="evenodd">
        <g transform="translate(-247.000000, -313.000000)" id="calendar" fill="#69AED4">
            <path d="M248,326.390625 L250.25,326.390625 L250.25,324.140625 L248,324.140625 L248,326.390625 Z M250.75,326.390625 L253.25,326.390625 L253.25,324.140625 L250.75,324.140625 L250.75,326.390625 Z M248,323.640625 L250.25,323.640625 L250.25,321.140625 L248,321.140625 L248,323.640625 Z M250.75,323.640625 L253.25,323.640625 L253.25,321.140625 L250.75,321.140625 L250.75,323.640625 Z M248,320.640625 L250.25,320.640625 L250.25,318.390625 L248,318.390625 L248,320.640625 Z M253.75,326.390625 L256.25,326.390625 L256.25,324.140625 L253.75,324.140625 L253.75,326.390625 Z M250.75,320.640625 L253.25,320.640625 L253.25,318.390625 L250.75,318.390625 L250.75,320.640625 Z M256.75,326.390625 L259,326.390625 L259,324.140625 L256.75,324.140625 L256.75,326.390625 Z M253.75,323.640625 L256.25,323.640625 L256.25,321.140625 L253.75,321.140625 L253.75,323.640625 Z M251,316.890625 L251,314.640625 C251,314.572916 250.975261,314.514323 250.925781,314.464844 C250.876302,314.415364 250.817709,314.390625 250.75,314.390625 L250.25,314.390625 C250.182291,314.390625 250.123698,314.415364 250.074219,314.464844 C250.024739,314.514323 250,314.572916 250,314.640625 L250,316.890625 C250,316.958334 250.024739,317.016927 250.074219,317.066406 C250.123698,317.115886 250.182291,317.140625 250.25,317.140625 L250.75,317.140625 C250.817709,317.140625 250.876302,317.115886 250.925781,317.066406 C250.975261,317.016927 251,316.958334 251,316.890625 L251,316.890625 Z M256.75,323.640625 L259,323.640625 L259,321.140625 L256.75,321.140625 L256.75,323.640625 Z M253.75,320.640625 L256.25,320.640625 L256.25,318.390625 L253.75,318.390625 L253.75,320.640625 Z M256.75,320.640625 L259,320.640625 L259,318.390625 L256.75,318.390625 L256.75,320.640625 Z M257,316.890625 L257,314.640625 C257,314.572916 256.975261,314.514323 256.925781,314.464844 C256.876302,314.415364 256.817709,314.390625 256.75,314.390625 L256.25,314.390625 C256.182291,314.390625 256.123698,314.415364 256.074219,314.464844 C256.024739,314.514323 256,314.572916 256,314.640625 L256,316.890625 C256,316.958334 256.024739,317.016927 256.074219,317.066406 C256.123698,317.115886 256.182291,317.140625 256.25,317.140625 L256.75,317.140625 C256.817709,317.140625 256.876302,317.115886 256.925781,317.066406 C256.975261,317.016927 257,316.958334 257,316.890625 L257,316.890625 Z M260,316.390625 L260,326.390625 C260,326.66146 259.901043,326.895832 259.703125,327.09375 C259.505207,327.291668 259.270835,327.390625 259,327.390625 L248,327.390625 C247.729165,327.390625 247.494793,327.291668 247.296875,327.09375 C247.098957,326.895832 247,326.66146 247,326.390625 L247,316.390625 C247,316.11979 247.098957,315.885418 247.296875,315.6875 C247.494793,315.489582 247.729165,315.390625 248,315.390625 L249,315.390625 L249,314.640625 C249,314.296873 249.122395,314.002605 249.367188,313.757812 C249.61198,313.51302 249.906248,313.390625 250.25,313.390625 L250.75,313.390625 C251.093752,313.390625 251.38802,313.51302 251.632812,313.757812 C251.877605,314.002605 252,314.296873 252,314.640625 L252,315.390625 L255,315.390625 L255,314.640625 C255,314.296873 255.122395,314.002605 255.367188,313.757812 C255.61198,313.51302 255.906248,313.390625 256.25,313.390625 L256.75,313.390625 C257.093752,313.390625 257.38802,313.51302 257.632812,313.757812 C257.877605,314.002605 258,314.296873 258,314.640625 L258,315.390625 L259,315.390625 C259.270835,315.390625 259.505207,315.489582 259.703125,315.6875 C259.901043,315.885418 260,316.11979 260,316.390625 L260,316.390625 Z"></path>
        </g>
    </g>
</svg>