<?xml version="1.0" encoding="UTF-8" standalone="no"?>
<svg width="16px" height="37px" viewBox="0 0 16 37" version="1.1" xmlns="http://www.w3.org/2000/svg" xmlns:xlink="http://www.w3.org/1999/xlink">
    <!-- Generator: Sketch 3.7.2 (28276) - http://www.bohemiancoding.com/sketch -->
    <title>check_mark</title>
    <desc>Created with Sketch.</desc>
    <defs></defs>
    <g id="Page-1" stroke="none" stroke-width="1" fill="none" fill-rule="evenodd">
        <g id="check_mark">
            <g id="Group-2">
                <rect id="Rectangle-2" fill="#69AED4" x="0" y="0" width="16" height="16"></rect>
                <path d="M13.0022381,5.12053229 L12.0915228,4.20981692 C11.9709869,4.08928106 11.803576,4.0223167 11.6361651,4.0223167 C11.4687542,4.0223167 11.3013432,4.08928106 11.1808074,4.20981692 L6.78794501,8.60937574 L4.81919266,6.63392695 C4.69865681,6.51339109 4.53124589,6.44642673 4.36383497,6.44642673 C4.19642407,6.44642673 4.02901315,6.51339109 3.90847729,6.63392695 L2.99776192,7.54464232 C2.87722605,7.66517818 2.8102617,7.83258909 2.8102617,8.00000001 C2.8102617,8.16741093 2.87722605,8.33482185 2.99776192,8.4553577 L5.42187194,10.8794677 L6.33258732,11.7901831 C6.45312317,11.910719 6.6205341,11.9776833 6.78794501,11.9776833 C6.95535593,11.9776833 7.12276683,11.910719 7.24330269,11.7901831 L8.15401806,10.8794677 L13.0022381,6.03124766 C13.122774,5.9107118 13.1897383,5.74330089 13.1897383,5.57588998 C13.1897383,5.40847906 13.122774,5.24106815 13.0022381,5.12053229 L13.0022381,5.12053229 L13.0022381,5.12053229 Z" id="Type-something-Copy-45" fill="#FFFFFF"></path>
            </g>
            <g id="Group-2-Copy" transform="translate(0.000000, 21.000000)">
                <rect id="Rectangle-2" fill="#D8D8D8" x="0" y="0" width="16" height="16"></rect>
                <path d="M13.0022381,5.12053229 L12.0915228,4.20981692 C11.9709869,4.08928106 11.803576,4.0223167 11.6361651,4.0223167 C11.4687542,4.0223167 11.3013432,4.08928106 11.1808074,4.20981692 L6.78794501,8.60937574 L4.81919266,6.63392695 C4.69865681,6.51339109 4.53124589,6.44642673 4.36383497,6.44642673 C4.19642407,6.44642673 4.02901315,6.51339109 3.90847729,6.63392695 L2.99776192,7.54464232 C2.87722605,7.66517818 2.8102617,7.83258909 2.8102617,8.00000001 C2.8102617,8.16741093 2.87722605,8.33482185 2.99776192,8.4553577 L5.42187194,10.8794677 L6.33258732,11.7901831 C6.45312317,11.910719 6.6205341,11.9776833 6.78794501,11.9776833 C6.95535593,11.9776833 7.12276683,11.910719 7.24330269,11.7901831 L8.15401806,10.8794677 L13.0022381,6.03124766 C13.122774,5.9107118 13.1897383,5.74330089 13.1897383,5.57588998 C13.1897383,5.40847906 13.122774,5.24106815 13.0022381,5.12053229 L13.0022381,5.12053229 L13.0022381,5.12053229 Z" id="Type-something-Copy-45-Copy" fill="#FFFFFF"></path>
            </g>
        </g>
    </g>
</svg>