<?xml version="1.0" encoding="UTF-8"?>
<svg width="20px" height="38px" viewBox="0 0 20 38" version="1.1" xmlns="http://www.w3.org/2000/svg" xmlns:xlink="http://www.w3.org/1999/xlink">
    <!-- Generator: Sketch 41.2 (35397) - http://www.bohemiancoding.com/sketch -->
    <title>combobox-arrow-3px</title>
    <desc>Created with Sketch.</desc>
    <defs></defs>
    <g id="Page-1" stroke="none" stroke-width="1" fill="none" fill-rule="evenodd">
        <g id="combobox-arrow-3px" transform="translate(0.000000, 1.000000)">
            <path d="M1.5,0.5 L1.5,35.5" id="Line" stroke="#EEEEEE" stroke-width="3" stroke-linecap="square"></path>
            <path d="M20,15.5 C20,15.6354173 19.9505213,15.7526037 19.8515625,15.8515625 L16.3515625,19.3515625 C16.2526037,19.4505213 16.1354173,19.5 16,19.5 C15.8645827,19.5 15.7473963,19.4505213 15.6484375,19.3515625 L12.1484375,15.8515625 C12.0494787,15.7526037 12,15.6354173 12,15.5 C12,15.3645827 12.0494787,15.2473963 12.1484375,15.1484375 C12.2473963,15.0494787 12.3645827,15 12.5,15 L19.5,15 C19.6354173,15 19.7526037,15.0494787 19.8515625,15.1484375 C19.9505213,15.2473963 20,15.3645827 20,15.5 Z" id="" fill="#9B9B9B"></path>
        </g>
    </g>
</svg>