<?xml version="1.0" encoding="UTF-8" standalone="no"?>
<svg
   xmlns:sketch="http://www.bohemiancoding.com/sketch/ns"
   xmlns:dc="http://purl.org/dc/elements/1.1/"
   xmlns:cc="http://creativecommons.org/ns#"
   xmlns:rdf="http://www.w3.org/1999/02/22-rdf-syntax-ns#"
   xmlns:svg="http://www.w3.org/2000/svg"
   xmlns="http://www.w3.org/2000/svg"
   xmlns:xlink="http://www.w3.org/1999/xlink"
   xmlns:sodipodi="http://sodipodi.sourceforge.net/DTD/sodipodi-0.dtd"
   xmlns:inkscape="http://www.inkscape.org/namespaces/inkscape"
   width="80"
   height="160"
   viewBox="0 0 80 160"
   version="1.1"
   id="svg2"
   inkscape:version="0.91 r13725"
   sodipodi:docname="emoticons.svg">
  <metadata
     id="metadata72">
    <rdf:RDF>
      <cc:Work
         rdf:about="">
        <dc:format>image/svg+xml</dc:format>
        <dc:type
           rdf:resource="http://purl.org/dc/dcmitype/StillImage" />
        <dc:title>emoticons</dc:title>
      </cc:Work>
    </rdf:RDF>
  </metadata>
  <sodipodi:namedview
     pagecolor="#ffffff"
     bordercolor="#666666"
     borderopacity="1"
     objecttolerance="10"
     gridtolerance="10"
     guidetolerance="10"
     inkscape:pageopacity="0"
     inkscape:pageshadow="2"
     inkscape:window-width="1768"
     inkscape:window-height="975"
     id="namedview70"
     showgrid="false"
     inkscape:zoom="2.7602718"
     inkscape:cx="11.405915"
     inkscape:cy="139.68888"
     inkscape:window-x="0"
     inkscape:window-y="0"
     inkscape:window-maximized="0"
     inkscape:current-layer="g13" />
  <!-- Generator: Sketch 3.3.2 (12043) - http://www.bohemiancoding.com/sketch -->
  <title
     id="title4">emoticons</title>
  <desc
     id="desc6">Created with Sketch.</desc>
  <defs
     id="defs8">
    <rect
       id="path-1"
       x="0"
       y="0"
       width="18"
       height="4" />
  </defs>
  <g
     id="Page-1"
     sketch:type="MSPage"
     style="fill:none;fill-rule:evenodd;stroke:none;stroke-width:1"
     transform="translate(0,-475)">
    <g
       id="emoticons"
       sketch:type="MSArtboardGroup">
      <g
         sketch:type="MSLayerGroup"
         transform="translate(-1,0)"
         id="g13">
        <g
           id="Group-3"
           transform="translate(41,516.5831)"
           sketch:type="MSShapeGroup"
           style="fill:#417505">
          <path
             d="m 9.4540855,21.224969 c 0.06122,0.0161 3.9971185,1.3874 8.0732545,1.2887 4.076135,0.0973 8.012034,-1.2726 8.072542,-1.2887 0.09681,-0.1029 -2.979864,5.0785 -8.072542,5.093901 -5.092678,-0.0154 -8.1693562,-5.196801 -8.0732545,-5.093901"
             id="Fill-88"
             inkscape:connector-curvature="0" />
          <path
             d="m 13.547966,15.887357 c 0,1.3055 -1.076339,2.3639 -2.403966,2.3639 -1.3276271,0 -2.4039661,-1.0584 -2.4039661,-2.3639 0,-1.3055 1.076339,-2.3639 2.4039661,-2.3639 1.327627,0 2.403966,1.0584 2.403966,2.3639"
             id="Fill-90"
             inkscape:connector-curvature="0" />
          <path
             d="m 24.937797,15.887357 c 0,1.3055 -1.075628,2.3639 -2.403967,2.3639 -1.327627,0 -2.403966,-1.0584 -2.403966,-2.3639 0,-1.3055 1.076339,-2.3639 2.403966,-2.3639 1.328339,0 2.403967,1.0584 2.403967,2.3639"
             id="Fill-91"
             inkscape:connector-curvature="0" />
          <path
             d="m 14.776875,10.479238 c -0.226373,0.3696 -0.682678,0.4039 -1.050712,0.2065 -1.251457,-0.6908998 -2.717186,-0.3906 -3.7344405,0.7679 -0.3004068,0.3346 -0.7417627,0.4837 -1.0485763,0.224 -0.3075254,-0.2569 -0.2754915,-0.994 0.1623051,-1.4896 1.4030847,-1.5959998 3.4233557,-2.0117998 5.1496267,-1.0583998 0.53817,0.2968 0.750306,0.9841998 0.521797,1.3495998"
             id="Fill-92"
             inkscape:connector-curvature="0" />
          <path
             d="m 20.220719,10.479238 c 0.226373,0.3696 0.682678,0.4039 1.050712,0.2065 1.252169,-0.6908998 2.717186,-0.3906 3.734441,0.7679 0.300406,0.3346 0.742474,0.4837 1.049288,0.224 0.306813,-0.2569 0.274779,-0.994 -0.162305,-1.4896 -1.403797,-1.5959998 -3.424068,-2.0117998 -5.149628,-1.0583998 -0.538169,0.2968 -0.751016,0.9841998 -0.522508,1.3495998"
             id="Fill-93"
             inkscape:connector-curvature="0" />
          <path
             d="M 18.000732,-1.5831 C 8.0587398,-1.5831 0,6.4762081 0,16.417266 0,26.358324 8.0587398,34.4169 18.000732,34.4169 27.94126,34.4169 36,26.358324 36,16.417266 36,6.4762081 27.94126,-1.5831 18.000732,-1.5831 l 0,0 z m 0,3.6609921 c 7.905707,0 14.338201,6.4330954 14.338201,14.3393739 0,7.905547 -6.432494,14.338642 -14.338201,14.338642 -7.907171,0 -14.3396654,-6.433095 -14.3396654,-14.338642 0,-7.9062785 6.4324944,-14.3393739 14.3396654,-14.3393739 l 0,0 z"
             id="Fill-37"
             inkscape:connector-curvature="0" />
        </g>
        <g
           id="g22"
           transform="matrix(1.046019,0,0,1.0459978,41,595)"
           sketch:type="MSShapeGroup"
           style="fill:#c0c0c0">
          <path
             d="M 17.2088,0 C 7.7042,0 0,7.7049 0,17.2088 c 0,9.5039 7.7042,17.2081 17.2088,17.2081 9.5032,0 17.2074,-7.7042 17.2074,-17.2081 C 34.4162,7.7049 26.712,0 17.2088,0 l 0,0 z m 0,3.5 c 7.5579,0 13.7074,6.1502 13.7074,13.7088 0,7.5579 -6.1495,13.7081 -13.7074,13.7081 C 9.6495,30.9169 3.5,24.7667 3.5,17.2088 3.5,9.6502 9.6495,3.5 17.2088,3.5 l 0,0 z"
             id="Fill-23"
             inkscape:connector-curvature="0" />
          <path
             d="m 13.7271,13.3639 c 0,1.3055 -1.0577,2.3639 -2.3632,2.3639 C 10.0584,15.7278 9,14.6694 9,13.3639 9,12.0584 10.0584,11 11.3639,11 c 1.3055,0 2.3632,1.0584 2.3632,2.3639"
             id="Fill-24"
             inkscape:connector-curvature="0" />
          <path
             d="m 24.7278,13.3639 c 0,1.3055 -1.0584,2.3639 -2.3639,2.3639 C 21.0584,15.7278 20,14.6694 20,13.3639 20,12.0584 21.0584,11 22.3639,11 c 1.3055,0 2.3639,1.0584 2.3639,2.3639"
             id="Fill-25"
             inkscape:connector-curvature="0" />
          <path
             d="m 25.166205,21.635624 c 0.4053,0.6335 0.0623,1.5743 -0.805,1.9936 -4.8552,2.3569 -10.5322,2.3569 -15.3866995,0 -0.868,-0.42 -1.2103,-1.3601 -0.805,-1.9936 0.406,-0.6356 1.2845,-0.8043 1.9957005,-0.4613 4.1034,1.9908 8.901899,1.9908 13.004599,0 0.7112,-0.343 1.590401,-0.175 1.9964,0.4613"
             id="Fill-26"
             inkscape:connector-curvature="0" />
        </g>
        <g
           id="Group-3-Copy"
           transform="matrix(1.046019,0,0,1.0459978,41,555)"
           sketch:type="MSShapeGroup"
           style="fill:#68a621">
          <path
             d="M 17.2088,0 C 7.7042,0 0,7.7049 0,17.2088 c 0,9.5039 7.7042,17.2081 17.2088,17.2081 9.5032,0 17.2074,-7.7042 17.2074,-17.2081 C 34.4162,7.7049 26.712,0 17.2088,0 l 0,0 z m 0,3.5 c 7.5579,0 13.7074,6.1502 13.7074,13.7088 0,7.5579 -6.1495,13.7081 -13.7074,13.7081 C 9.6495,30.9169 3.5,24.7667 3.5,17.2088 3.5,9.6502 9.6495,3.5 17.2088,3.5 l 0,0 z"
             id="path29"
             inkscape:connector-curvature="0" />
          <path
             d="m 13.7271,13.3639 c 0,1.3055 -1.0577,2.3639 -2.3632,2.3639 C 10.0584,15.7278 9,14.6694 9,13.3639 9,12.0584 10.0584,11 11.3639,11 c 1.3055,0 2.3632,1.0584 2.3632,2.3639"
             id="path31"
             inkscape:connector-curvature="0" />
          <path
             d="m 24.7278,13.3639 c 0,1.3055 -1.0584,2.3639 -2.3639,2.3639 C 21.0584,15.7278 20,14.6694 20,13.3639 20,12.0584 21.0584,11 22.3639,11 c 1.3055,0 2.3639,1.0584 2.3639,2.3639"
             id="path33"
             inkscape:connector-curvature="0" />
          <path
             d="m 9.4540855,20.224969 c 0.06122,0.0161 3.9971185,1.3874 8.0732545,1.2887 4.076135,0.0973 8.012034,-1.2726 8.072542,-1.2887 0.09681,-0.1029 -2.979864,5.0785 -8.072542,5.093901 -5.092678,-0.0154 -8.1693562,-5.196801 -8.0732545,-5.093901"
             id="Fill-88-Copy"
             inkscape:connector-curvature="0" />
        </g>
        <g
           id="g36"
           transform="matrix(1.0459978,0,0,1.0459978,1,475)"
           sketch:type="MSShapeGroup"
           style="fill:#979797">
          <path
             d="M 17.2088,0 C 7.7042,0 0,7.7049 0,17.2088 c 0,9.5039 7.7042,17.2081 17.2088,17.2081 9.5039,0 17.2081,-7.7042 17.2081,-17.2081 C 34.4169,7.7049 26.7127,0 17.2088,0 l 0,0 z m 0,3.5 c 7.5579,0 13.7081,6.1502 13.7081,13.7088 0,7.5579 -6.1502,13.7081 -13.7081,13.7081 C 9.6495,30.9169 3.5,24.7667 3.5,17.2088 3.5,9.6502 9.6495,3.5 17.2088,3.5 l 0,0 z"
             id="Fill-27"
             inkscape:connector-curvature="0" />
          <path
             d="m 14.7271,14.3639 c 0,1.3055 -1.0577,2.3639 -2.3632,2.3639 C 11.0584,16.7278 10,15.6694 10,14.3639 10,13.0584 11.0584,12 12.3639,12 c 1.3055,0 2.3632,1.0584 2.3632,2.3639"
             id="Fill-28"
             inkscape:connector-curvature="0" />
          <path
             d="m 25.7278,14.3639 c 0,1.3055 -1.0584,2.3639 -2.3639,2.3639 C 22.0577,16.7278 21,15.6694 21,14.3639 21,13.0584 22.0577,12 23.3639,12 c 1.3055,0 2.3639,1.0584 2.3639,2.3639"
             id="Fill-29"
             inkscape:connector-curvature="0" />
          <path
             d="m 25.5715,23.3643 c 0,0.7532 -0.6111,1.3643 -1.365,1.3643 l -12.8415,0 C 10.6111,24.7286 10,24.1175 10,23.3643 10,22.6111 10.6111,22 11.365,22 l 12.8415,0 c 0.7539,0 1.365,0.6111 1.365,1.3643"
             id="Fill-36"
             inkscape:connector-curvature="0" />
        </g>
        <g
           id="Group-7"
           transform="matrix(1.0459978,0,0,1.0459978,1,515)"
           sketch:type="MSShapeGroup">
          <path
             d="m 14.261927,14.2639 c 0,1.3055 -1.071436,2.3639 -2.3946,2.3639 -1.322454,0 -2.3945997,-1.0584 -2.3945997,-2.3639 0,-1.3055 1.0721457,-2.3639 2.3945997,-2.3639 1.323164,0 2.3946,1.0584 2.3946,2.3639"
             id="Fill-30"
             inkscape:connector-curvature="0"
             style="fill:#f6a623" />
          <path
             d="m 24.898291,14.2639 c 0,1.3055 -1.072146,2.3639 -2.3946,2.3639 -1.323164,0 -2.3946,-1.0584 -2.3946,-2.3639 0,-1.3055 1.071436,-2.3639 2.3946,-2.3639 1.322454,0 2.3946,1.0584 2.3946,2.3639"
             id="Fill-31"
             inkscape:connector-curvature="0"
             style="fill:#f6a623" />
          <path
             d="m 24.848738,24.9946 c -0.06027,-0.0168 -3.981546,-1.3888 -8.041091,-1.2894 -4.060255,-0.098 -7.9815273,1.2719 -8.0418,1.2894 -0.096436,0.1022 2.968255,-5.0799 8.0418,-5.0946 5.072836,0.0147 8.137527,5.1968 8.041091,5.0946"
             id="Fill-32"
             inkscape:connector-curvature="0"
             style="fill:#f6a623" />
          <path
             d="M 17.2088,0 C 7.7042,0 0,7.7049 0,17.2088 c 0,9.5039 7.7042,17.2081 17.2088,17.2081 9.5039,0 17.2081,-7.7042 17.2081,-17.2081 C 34.4169,7.7049 26.7127,0 17.2088,0 l 0,0 z m 0,3.5 c 7.5579,0 13.7081,6.1502 13.7081,13.7088 0,7.5579 -6.1502,13.7081 -13.7081,13.7081 C 9.6495,30.9169 3.5,24.7667 3.5,17.2088 3.5,9.6502 9.6495,3.5 17.2088,3.5 l 0,0 z"
             id="Fill-27-Copy"
             inkscape:connector-curvature="0"
             style="fill:#f5a623" />
        </g>
        <g
           id="g47"
           transform="matrix(1.0459978,0,0,1.046019,1,555)"
           sketch:type="MSShapeGroup"
           style="fill:#ee3024">
          <path
             d="M 10.8612,11.9 C 10.2186,12.5958 9.8,13.706 9.8,14.9611 c 0,2.1056 1.1725,3.8143 2.6187,3.8143 1.204,0 2.2148,-1.1851 2.5207,-2.7972 L 10.8612,11.9"
             id="Fill-66"
             inkscape:connector-curvature="0" />
          <path
             d="m 23.6782,11.9 c 0.644,0.6958 1.0626,1.806 1.0626,3.0611 0,2.1056 -1.1725,3.8143 -2.618,3.8143 -1.2047,0 -2.2162,-1.1851 -2.5228,-2.7972 L 23.6782,11.9"
             id="Fill-67"
             inkscape:connector-curvature="0" />
          <path
             d="m 15.701613,10.817013 c 0.3829,0.3822 0.3829,1.0017 0,1.3839 -0.3822,0.3822 -1.0024,0.3829 -1.3853,0 l -2.8294,-2.8294004 c -0.3829,-0.3829 -0.3822,-1.0024 0,-1.3846 0.3822,-0.3822 1.0024,-0.3829 1.3853,0 l 2.8294,2.8301004"
             id="Fill-68"
             inkscape:connector-curvature="0" />
          <path
             d="m 19.187175,10.817013 c -0.3829,0.3822 -0.3829,1.0017 0,1.3839 0.3822,0.3822 1.0024,0.3829 1.3846,0 l 2.8294,-2.8294004 c 0.3829,-0.3829 0.3822,-1.0024 0,-1.3846 -0.3815,-0.3822 -1.0017,-0.3829 -1.3846,0 l -2.8294,2.8301004"
             id="Fill-69"
             inkscape:connector-curvature="0" />
          <path
             d="m 23.5116,23.6299 c 0,0.679 -0.5502,1.2299 -1.2299,1.2299 l -9.1518,0 c -0.679,0 -1.2299,-0.5509 -1.2299,-1.2299 0,-0.6797 0.5509,-1.2299 1.2299,-1.2299 l 9.1518,0 c 0.6797,0 1.2299,0.5502 1.2299,1.2299"
             id="Fill-71"
             inkscape:connector-curvature="0" />
          <path
             d="M 17.2088,0 C 7.7049,0 0,7.7049 0,17.2081 c 0,9.5046 7.7049,17.2081 17.2088,17.2081 9.5039,0 17.2081,-7.7035 17.2081,-17.2081 C 34.4169,7.7049 26.7127,0 17.2088,0 l 0,0 z m 0,3.5 c 7.5586,0 13.7081,6.1502 13.7081,13.7081 0,7.5586 -6.1495,13.7081 -13.7081,13.7081 C 9.6495,30.9162 3.5,24.7667 3.5,17.2081 3.5,9.6502 9.6495,3.5 17.2088,3.5 l 0,0 z"
             id="Fill-62"
             inkscape:connector-curvature="0" />
        </g>
        <g
           id="Sleeping"
           transform="matrix(1.0107697,0,0,1.046019,0.22793991,595)">
          <path
             d="m 23.365968,25.00332 c -0.033,-0.0066 -2.180105,-0.547175 -4.402919,-0.508012 -2.223203,-0.03861 -4.370306,0.501117 -4.403308,0.508012 -0.0528,0.04027 1.625275,-2.001436 4.403308,-2.007228 2.777644,0.0058 4.455723,2.047494 4.402919,2.007228"
             id="path56"
             sketch:type="MSShapeGroup"
             transform="matrix(1,0,0,-1,0,48)"
             inkscape:connector-curvature="0"
             style="fill:#9b9b9b" />
          <path
             d="M 18.949382,0 C 16.099546,0 13.412091,0.6797 11.036636,1.876 11.4706,2.9358 11.720909,4.1496 11.766291,5.4985 13.8652,4.2392 16.318654,3.5 18.949382,3.5 26.605436,3.5 32.8348,9.6495 32.8348,17.2081 c 0,7.5586 -6.229364,13.7081 -13.885418,13.7081 -7.202236,0 -13.1387456,-5.4425 -13.8180547,-12.3795 -0.4169455,0.1029 -0.8509091,0.1589 -1.3033091,0.1589 -0.8126182,0 -1.5748909,-0.1953 -2.2825636,-0.5376 0.4992,9.0622 8.0992363,16.2582 17.4039274,16.2582 9.626618,0 17.430872,-7.7042 17.430872,-17.2081 C 36.380254,7.7049 28.576,0 18.949382,0"
             id="Fill-33"
             sketch:type="MSShapeGroup"
             inkscape:connector-curvature="0"
             style="fill:#d8d8d8" />
          <path
             d="m 3.4101542,11.271589 0,-0.313092 c 0,-0.533832 0.058339,-0.9666813 0.1755062,-1.3000721 C 3.7023378,9.3260491 3.8768635,9.0220902 4.107767,8.7470555 4.3391607,8.4720209 4.8588161,7.9874118 5.6662428,7.2947508 6.0966744,6.9314209 6.3118901,6.599045 6.3118901,6.296101 6.3118901,5.9936644 6.2256077,5.7582103 6.0530429,5.5907538 5.8804781,5.4227899 5.6181992,5.3390616 5.2681672,5.3390616 4.8901915,5.3390616 4.577908,5.4684598 4.3308266,5.7267488 4.0837452,5.9855453 3.9258876,6.4361555 3.8567637,7.080102 L 0.76383379,6.6842956 C 0.86972582,5.5070256 1.2829989,4.5591202 2.0031628,3.8415943 2.7233267,3.1235611 3.8273492,2.7647982 5.3152303,2.7647982 c 1.1589296,0 2.0943092,0.2501699 2.806139,0.7505097 0.9677356,0.6764228 1.4511131,1.5791657 1.4511131,2.7067063 0,0.4673559 -0.1250114,0.918981 -0.3745441,1.3528457 C 8.9474252,8.0097394 8.4375747,8.5405258 7.6674062,9.1677266 7.1301022,9.6076805 6.791836,9.961369 6.6511368,10.228285 6.5099474,10.4952 6.4393527,10.842799 6.4393527,11.271589 l -3.0291985,0 z"
             id="Fill-34"
             sketch:type="MSShapeGroup"
             inkscape:connector-curvature="0"
             style="fill:#9b9b9b" />
          <path
             d="m 6.5217132,13.610399 c 0,0.944861 -0.740754,1.711101 -1.6535825,1.711101 -0.9128286,0 -1.6530924,-0.76624 -1.6530924,-1.711101 0,-0.945368 0.7402638,-1.711609 1.6530924,-1.711609 0.9128285,0 1.6535825,0.766241 1.6535825,1.711609"
             id="Fill-35"
             sketch:type="MSShapeGroup"
             inkscape:connector-curvature="0"
             style="fill:#9b9b9b" />
          <g
             id="Fill-30-+-Fill-31-+-Mask"
             transform="translate(10,15)">
            <mask
               id="mask-2"
               sketch:name="Mask"
               fill="white">
              <use
                 xlink:href="#path-1"
                 id="use63"
                 x="0"
                 y="0"
                 width="100%"
                 height="100%" />
            </mask>
            <use
               id="Mask"
               sketch:type="MSShapeGroup"
               xlink:href="#path-1"
               style="opacity:0;fill:#ffffff"
               x="0"
               y="0"
               width="100%"
               height="100%" />
            <path
               d="m 6.2619273,-0.7361 c 0,1.3055 -1.0714364,2.3639 -2.3946,2.3639 -1.3224546,0 -2.3946,-1.0584 -2.3946,-2.3639 0,-1.3055 1.0721454,-2.3639 2.3946,-2.3639 1.3231636,0 2.3946,1.0584 2.3946,2.3639"
               id="path66"
               sketch:type="MSShapeGroup"
               mask="url(#mask-2)"
               inkscape:connector-curvature="0"
               style="fill:#9b9b9b" />
            <path
               d="m 16.898291,-0.7361 c 0,1.3055 -1.072145,2.3639 -2.3946,2.3639 -1.323164,0 -2.3946,-1.0584 -2.3946,-2.3639 0,-1.3055 1.071436,-2.3639 2.3946,-2.3639 1.322455,0 2.3946,1.0584 2.3946,2.3639 l -12.6369062,0"
               id="path68"
               sketch:type="MSShapeGroup"
               mask="url(#mask-2)"
               inkscape:connector-curvature="0"
               style="fill:#9b9b9b" />
          </g>
        </g>
      </g>
    </g>
  </g>
</svg>
