<?xml version="1.0" encoding="UTF-8"?>
<svg width="13px" height="13px" viewBox="0 0 13 13" version="1.1" xmlns="http://www.w3.org/2000/svg" xmlns:xlink="http://www.w3.org/1999/xlink">
    <!-- Generator: Sketch 42 (36781) - http://www.bohemiancoding.com/sketch -->
    <title></title>
    <desc>Created with Sketch.</desc>
    <defs></defs>
    <g id="Page-1" stroke="none" stroke-width="1" fill="none" fill-rule="evenodd">
        <g id="Elements" transform="translate(-53.000000, -979.000000)" fill="#9B9B9B">
            <path d="M61.4435675,985.025012 C61.4435675,984.13029 61.1273401,983.364952 60.4948759,982.728974 C59.8624117,982.092996 59.1013018,981.775012 58.2115233,981.775012 C57.3217448,981.775012 56.5606348,982.092996 55.9281706,982.728974 C55.2957064,983.364952 54.9794791,984.13029 54.9794791,985.025012 C54.9794791,985.919733 55.2957064,986.685072 55.9281706,987.32105 C56.5606348,987.957027 57.3217448,988.275012 58.2115233,988.275012 C59.1013018,988.275012 59.8624117,987.957027 60.4948759,987.32105 C61.1273401,986.685072 61.4435675,985.919733 61.4435675,985.025012 L61.4435675,985.025012 Z M65.1373323,991.060726 C65.1373323,991.312215 65.045951,991.529847 64.8631857,991.713628 C64.6804204,991.897408 64.463991,991.989297 64.2138911,991.989297 C63.9541719,991.989297 63.7377426,991.897408 63.5645965,991.713628 L61.0900626,989.232601 C60.2291418,989.832306 59.2696383,990.132154 58.2115233,990.132154 C57.5237485,990.132154 56.8660437,989.997948 56.2383892,989.729532 C55.6107346,989.461115 55.0696612,989.098396 54.6151527,988.641362 C54.1606442,988.184329 53.7999286,987.640249 53.532995,987.009108 C53.2660615,986.377966 53.1325967,985.716607 53.1325967,985.025012 C53.1325967,984.333416 53.2660615,983.672057 53.532995,983.040916 C53.7999286,982.409774 54.1606442,981.865695 54.6151527,981.408661 C55.0696612,980.951628 55.6107346,980.588908 56.2383892,980.320492 C56.8660437,980.052075 57.5237485,979.917869 58.2115233,979.917869 C58.899298,979.917869 59.5570028,980.052075 60.1846574,980.320492 C60.812312,980.588908 61.3533854,980.951628 61.8078939,981.408661 C62.2624024,981.865695 62.623118,982.409774 62.8900515,983.040916 C63.1569851,983.672057 63.2904499,984.333416 63.2904499,985.025012 C63.2904499,986.089005 62.9922583,987.053839 62.3958662,987.919543 L64.8704001,990.407824 C65.0483558,990.586768 65.1373323,990.8044 65.1373323,991.060726 L65.1373323,991.060726 Z" id=""></path>
        </g>
    </g>
</svg>