<?xml version="1.0" encoding="UTF-8"?>
<svg width="400px" height="915px" viewBox="0 0 400 915" version="1.1" xmlns="http://www.w3.org/2000/svg" xmlns:xlink="http://www.w3.org/1999/xlink">
    <!-- Generator: Sketch 42 (36781) - http://www.bohemiancoding.com/sketch -->
    <title>sprite</title>
    <desc>Created with Sketch.</desc>
    <defs></defs>
    <g id="Page-1" stroke="none" stroke-width="1" fill="none" fill-rule="evenodd">
        <g id="sprite">
            <g id="bionic" fill-rule="nonzero">
                <g id="Rectangle-1-+-BIONIC">
                    <g id="Page-1">
                        <g id="Rectangle-1-+-BIONIC">
                            <rect id="Rectangle-1" fill="#F12E15" x="13.2287736" y="0" width="27.2028302" height="24" rx="2"></rect>
                            <path d="M0.0745283019,21.3498069 C0.885023585,21.4610039 2.17063679,21.5722008 3.84752358,21.5722008 C6.92181604,21.5722008 9.04587264,21.0162162 10.359434,19.8208494 C11.3096698,18.9034749 11.9524764,17.6803089 11.9524764,16.0679537 C11.9524764,13.2880309 9.85636792,11.8146718 8.06768868,11.3698842 L8.06768868,11.3142857 C10.0520047,10.5915058 11.2537736,9.00694981 11.2537736,7.2 C11.2537736,5.72664093 10.6668632,4.61467181 9.68867925,3.89189189 C8.51485849,2.94671815 6.94976415,2.52972973 4.5182783,2.52972973 C2.8134434,2.52972973 1.1365566,2.6965251 0.0745283019,2.91891892 L0.0745283019,21.3498069 Z M2.50601415,4.55907336 C2.89728774,4.47567568 3.54009434,4.39227799 4.65801887,4.39227799 C7.11745283,4.39227799 8.79433962,5.25405405 8.79433962,7.45019305 C8.79433962,9.25714286 7.28514151,10.5915058 4.71391509,10.5915058 L2.50601415,10.5915058 L2.50601415,4.55907336 Z M2.50601415,12.4262548 L4.5182783,12.4262548 C7.17334906,12.4262548 9.38125,13.4826255 9.38125,16.0401544 C9.38125,18.7644788 7.0615566,19.6818533 4.54622642,19.6818533 C3.67983491,19.6818533 2.98113208,19.6540541 2.50601415,19.5706564 L2.50601415,12.4262548 Z M16.1540094,2.66872587 L16.1540094,21.4054054 L18.5854953,21.4054054 L18.5854953,2.66872587 L16.1540094,2.66872587 Z M29.9976415,2.36293436 C24.9669811,2.36293436 21.2498821,6.25482625 21.2498821,12.203861 C21.2498821,17.8749035 24.7433962,21.7111969 29.7181604,21.7111969 C34.5252358,21.7111969 38.4659198,18.2918919 38.4659198,11.842471 C38.4659198,6.28262548 35.1400943,2.36293436 29.9976415,2.36293436 L29.9976415,2.36293436 Z M29.8858491,4.33667954 C33.9383255,4.33667954 35.8946934,8.22857143 35.8946934,11.953668 C35.8946934,16.2069498 33.7147406,19.7374517 29.8579009,19.7374517 C26.0290094,19.7374517 23.8490566,16.1513514 23.8490566,12.1482625 C23.8490566,8.03397683 25.8613208,4.33667954 29.8858491,4.33667954 L29.8858491,4.33667954 Z M44.8474057,21.4054054 L44.8474057,13.3992278 C44.8474057,10.2857143 44.7915094,8.03397683 44.6517689,5.67104247 L44.7356132,5.64324324 C45.6858491,7.67258687 46.9435142,9.81312741 48.2570755,11.8980695 L54.2379717,21.4054054 L56.6974057,21.4054054 L56.6974057,2.66872587 L54.4056604,2.66872587 L54.4056604,10.5081081 C54.4056604,13.427027 54.4615566,15.7065637 54.6851415,18.2084942 L54.6292453,18.2362934 C53.7349057,16.3181467 52.6449292,14.3444015 51.2475236,12.1482625 L45.2107311,2.66872587 L42.5556604,2.66872587 L42.5556604,21.4054054 L44.8474057,21.4054054 Z M59.0823113,2.66872587 L59.0823113,21.4054054 L61.5137972,21.4054054 L61.5137972,2.66872587 L59.0823113,2.66872587 Z M77.4908019,18.8756757 C76.5126179,19.3482625 75.0034198,19.6540541 73.5221698,19.6540541 C68.9386792,19.6540541 66.2836085,16.7073359 66.2836085,12.1204633 C66.2836085,7.2 69.2181604,4.39227799 73.6339623,4.39227799 C75.1990566,4.39227799 76.5126179,4.72586873 77.4349057,5.17065637 L78.021816,3.1969112 C77.3790094,2.86332046 75.8977594,2.36293436 73.5501179,2.36293436 C67.7089623,2.36293436 63.7123821,6.33822394 63.7123821,12.203861 C63.7123821,18.3474903 67.7089623,21.6833977 73.0191038,21.6833977 C75.3108491,21.6833977 77.0995283,21.23861 77.9938679,20.7938224 L77.4908019,18.8756757 Z" id="BIONIC" fill="#FFFFFF"></path>
                        </g>
                    </g>
                </g>
            </g>
            <path d="M6.5,108.5 L19.8839574,132.179309" id="Line" stroke="#CCCCCC"></path>
            <path d="M6.5,131.820691 L19.8839574,155.5" id="Line-2" stroke="#CCCCCC" transform="translate(13.191979, 143.660345) scale(-1, 1) rotate(-180.000000) translate(-13.191979, -143.660345) "></path>
            <path d="M19.8571653,59.9006814 C19.8571653,59.8738957 19.8571653,59.8471099 19.8437725,59.8203242 L12.1428704,53.4721024 L4.44196839,59.8203242 C4.44196839,59.8471099 4.42857552,59.8738957 4.42857552,59.9006814 L4.42857552,66.3292605 C4.42857552,66.7980111 4.81696884,67.1864044 5.28571939,67.1864044 L10.4285827,67.1864044 L10.4285827,62.0435411 L13.8571582,62.0435411 L13.8571582,67.1864044 L19.0000215,67.1864044 C19.468772,67.1864044 19.8571653,66.7980111 19.8571653,66.3292605 L19.8571653,59.9006814 L19.8571653,59.9006814 Z M22.843776,58.9765732 C22.9910976,58.8024658 22.9643119,58.5212155 22.7902045,58.3738939 L19.8571653,55.936391 L19.8571653,50.4720988 C19.8571653,50.2310271 19.6696651,50.0435268 19.4285934,50.0435268 L16.8571618,50.0435268 C16.61609,50.0435268 16.4285898,50.2310271 16.4285898,50.4720988 L16.4285898,53.083709 L13.1607288,50.3515629 C12.5982281,49.8828124 11.6875127,49.8828124 11.1250121,50.3515629 L1.49553631,58.3738939 C1.32142895,58.5212155 1.29464321,58.8024658 1.44196481,58.9765732 L2.27232295,59.9676458 C2.33928731,60.048003 2.4464303,60.1015745 2.55357328,60.1149674 C2.67410914,60.1283603 2.78125212,60.0881817 2.87500224,60.0212173 L12.1428704,52.2935295 L21.4107386,60.0212173 C21.4910959,60.0881817 21.584846,60.1149674 21.691989,60.1149674 L21.7321676,60.1149674 C21.8393106,60.1015745 21.9464535,60.048003 22.0134179,59.9676458 L22.843776,58.9765732 L22.843776,58.9765732 Z" id="Type-something" fill="#6CAFD2" fill-rule="nonzero"></path>
            <path d="M19.8571653,199.900681 C19.8571653,199.873895 19.8571653,199.84711 19.8437725,199.820324 L12.1428704,193.472102 L4.44196839,199.820324 C4.44196839,199.84711 4.42857552,199.873895 4.42857552,199.900681 L4.42857552,206.32926 C4.42857552,206.798011 4.81696884,207.186404 5.28571939,207.186404 L10.4285827,207.186404 L10.4285827,202.043541 L13.8571582,202.043541 L13.8571582,207.186404 L19.0000215,207.186404 C19.468772,207.186404 19.8571653,206.798011 19.8571653,206.32926 L19.8571653,199.900681 L19.8571653,199.900681 Z M22.843776,198.976573 C22.9910976,198.802465 22.9643119,198.521215 22.7902045,198.373893 L19.8571653,195.936391 L19.8571653,190.472098 C19.8571653,190.231027 19.6696651,190.043526 19.4285934,190.043526 L16.8571618,190.043526 C16.61609,190.043526 16.4285898,190.231027 16.4285898,190.472098 L16.4285898,193.083709 L13.1607288,190.351563 C12.5982281,189.882812 11.6875127,189.882812 11.1250121,190.351563 L1.49553631,198.373893 C1.32142895,198.521215 1.29464321,198.802465 1.44196481,198.976573 L2.27232295,199.967645 C2.33928731,200.048003 2.4464303,200.101574 2.55357328,200.114967 C2.67410914,200.12836 2.78125212,200.088181 2.87500224,200.021217 L12.1428704,192.293529 L21.4107386,200.021217 C21.4910959,200.088181 21.584846,200.114967 21.691989,200.114967 L21.7321676,200.114967 C21.8393106,200.101574 21.9464535,200.048003 22.0134179,199.967645 L22.843776,198.976573 L22.843776,198.976573 Z" id="Type-something-2" fill="#CCCCCC" fill-rule="nonzero"></path>
            <path d="M0,239.25 L20,239.25" id="Line" stroke="#373E42" stroke-width="0.5" stroke-linecap="square"></path>
            <path d="M0,246.25 L20,246.25" id="Line-Copy" stroke="#373E42" stroke-width="0.5" stroke-linecap="square"></path>
            <path d="M0,253.25 L20,253.25" id="Line-Copy-2" stroke="#373E42" stroke-width="0.5" stroke-linecap="square"></path>
        </g>
    </g>
</svg>