<?xml version="1.0" encoding="UTF-8" standalone="no"?>
<svg width="7px" height="10px" viewBox="0 0 7 10" version="1.1" xmlns="http://www.w3.org/2000/svg" xmlns:xlink="http://www.w3.org/1999/xlink">
    <!-- Generator: Sketch 39.1 (31720) - http://www.bohemiancoding.com/sketch -->
    <title>angle-right</title>
    <desc>Created with Sketch.</desc>
    <defs></defs>
    <g id="Page-1" stroke="none" stroke-width="1" fill="none" fill-rule="evenodd">
        <path d="M9.14309593,0.917182309 C9.14309593,0.997802867 9.11208849,1.06911998 9.05007267,1.1311358 L4.71518895,5.46601952 C4.65317314,5.52803533 4.58185602,5.55904277 4.50123547,5.55904277 C4.42061491,5.55904277 4.34929779,5.52803533 4.28728198,5.46601952 L-0.0476017442,1.1311358 C-0.109617558,1.06911998 -0.140625,0.997802867 -0.140625,0.917182309 C-0.140625,0.836561751 -0.109617558,0.765244635 -0.0476017442,0.703228821 L0.417514535,0.238112542 C0.479530349,0.176096728 0.550847465,0.145089286 0.631468023,0.145089286 C0.712088581,0.145089286 0.783405698,0.176096728 0.845421512,0.238112542 L4.50123547,3.8939265 L8.15704942,0.238112542 C8.21906523,0.176096728 8.29038235,0.145089286 8.37100291,0.145089286 C8.45162347,0.145089286 8.52294058,0.176096728 8.5849564,0.238112542 L9.05007267,0.703228821 C9.11208849,0.765244635 9.14309593,0.836561751 9.14309593,0.917182309 L9.14309593,0.917182309 Z" id="angle-right" fill="#FFFFFF" transform="translate(4.859375, 4.252066) rotate(-90.000000) translate(-4.859375, -4.252066) "></path>
    </g>
</svg>