<?xml version="1.0" encoding="UTF-8" standalone="no"?>
<svg width="11px" height="6px" viewBox="0 0 11 6" version="1.1" xmlns="http://www.w3.org/2000/svg" xmlns:xlink="http://www.w3.org/1999/xlink">
    <!-- Generator: Sketch 39.1 (31720) - http://www.bohemiancoding.com/sketch -->
    <title>angle-down</title>
    <desc>Created with Sketch.</desc>
    <defs></defs>
    <g id="Page-1" stroke="none" stroke-width="1" fill="none" fill-rule="evenodd">
        <path d="M10.1430959,0.917182309 C10.1430959,0.997802867 10.1120885,1.06911998 10.0500727,1.1311358 L5.71518895,5.46601952 C5.65317314,5.52803533 5.58185602,5.55904277 5.50123547,5.55904277 C5.42061491,5.55904277 5.34929779,5.52803533 5.28728198,5.46601952 L0.952398256,1.1311358 C0.890382442,1.06911998 0.859375,0.997802867 0.859375,0.917182309 C0.859375,0.836561751 0.890382442,0.765244635 0.952398256,0.703228821 L1.41751453,0.238112542 C1.47953035,0.176096728 1.55084747,0.145089286 1.63146802,0.145089286 C1.71208858,0.145089286 1.7834057,0.176096728 1.84542151,0.238112542 L5.50123547,3.8939265 L9.15704942,0.238112542 C9.21906523,0.176096728 9.29038235,0.145089286 9.37100291,0.145089286 C9.45162347,0.145089286 9.52294058,0.176096728 9.5849564,0.238112542 L10.0500727,0.703228821 C10.1120885,0.765244635 10.1430959,0.836561751 10.1430959,0.917182309 L10.1430959,0.917182309 Z" id="angle-down" fill="#FFFFFF"></path>
    </g>
</svg>