<?xml version="1.0" encoding="UTF-8" standalone="no"?>
<svg width="78px" height="24px" viewBox="0 0 78 24" version="1.1" xmlns="http://www.w3.org/2000/svg" xmlns:xlink="http://www.w3.org/1999/xlink" xmlns:sketch="http://www.bohemiancoding.com/sketch/ns">
    <!-- Generator: Sketch 3.2.2 (9983) - http://www.bohemiancoding.com/sketch -->
    <title>Rectangle 1 + BIONIC</title>
    <desc>Created with Sketch.</desc>
    <defs></defs>
    <g id="Page-1" stroke="none" stroke-width="1" fill="none" fill-rule="evenodd" sketch:type="MSPage">
        <g id="Rectangle-1-+-BIONIC" sketch:type="MSLayerGroup">
            <rect id="Rectangle-1" fill="#F12E15" sketch:type="MSShapeGroup" x="13.2287736" y="0" width="27.2028302" height="24" rx="2"></rect>
            <path d="M0.0745283019,21.3498069 C0.885023585,21.4610039 2.17063679,21.5722008 3.84752358,21.5722008 C6.92181604,21.5722008 9.04587264,21.0162162 10.359434,19.8208494 C11.3096698,18.9034749 11.9524764,17.6803089 11.9524764,16.0679537 C11.9524764,13.2880309 9.85636792,11.8146718 8.06768868,11.3698842 L8.06768868,11.3142857 C10.0520047,10.5915058 11.2537736,9.00694981 11.2537736,7.2 C11.2537736,5.72664093 10.6668632,4.61467181 9.68867925,3.89189189 C8.51485849,2.94671815 6.94976415,2.52972973 4.5182783,2.52972973 C2.8134434,2.52972973 1.1365566,2.6965251 0.0745283019,2.91891892 L0.0745283019,21.3498069 Z M2.50601415,4.55907336 C2.89728774,4.47567568 3.54009434,4.39227799 4.65801887,4.39227799 C7.11745283,4.39227799 8.79433962,5.25405405 8.79433962,7.45019305 C8.79433962,9.25714286 7.28514151,10.5915058 4.71391509,10.5915058 L2.50601415,10.5915058 L2.50601415,4.55907336 Z M2.50601415,12.4262548 L4.5182783,12.4262548 C7.17334906,12.4262548 9.38125,13.4826255 9.38125,16.0401544 C9.38125,18.7644788 7.0615566,19.6818533 4.54622642,19.6818533 C3.67983491,19.6818533 2.98113208,19.6540541 2.50601415,19.5706564 L2.50601415,12.4262548 Z M16.1540094,2.66872587 L16.1540094,21.4054054 L18.5854953,21.4054054 L18.5854953,2.66872587 L16.1540094,2.66872587 Z M29.9976415,2.36293436 C24.9669811,2.36293436 21.2498821,6.25482625 21.2498821,12.203861 C21.2498821,17.8749035 24.7433962,21.7111969 29.7181604,21.7111969 C34.5252358,21.7111969 38.4659198,18.2918919 38.4659198,11.842471 C38.4659198,6.28262548 35.1400943,2.36293436 29.9976415,2.36293436 L29.9976415,2.36293436 Z M29.8858491,4.33667954 C33.9383255,4.33667954 35.8946934,8.22857143 35.8946934,11.953668 C35.8946934,16.2069498 33.7147406,19.7374517 29.8579009,19.7374517 C26.0290094,19.7374517 23.8490566,16.1513514 23.8490566,12.1482625 C23.8490566,8.03397683 25.8613208,4.33667954 29.8858491,4.33667954 L29.8858491,4.33667954 Z M44.8474057,21.4054054 L44.8474057,13.3992278 C44.8474057,10.2857143 44.7915094,8.03397683 44.6517689,5.67104247 L44.7356132,5.64324324 C45.6858491,7.67258687 46.9435142,9.81312741 48.2570755,11.8980695 L54.2379717,21.4054054 L56.6974057,21.4054054 L56.6974057,2.66872587 L54.4056604,2.66872587 L54.4056604,10.5081081 C54.4056604,13.427027 54.4615566,15.7065637 54.6851415,18.2084942 L54.6292453,18.2362934 C53.7349057,16.3181467 52.6449292,14.3444015 51.2475236,12.1482625 L45.2107311,2.66872587 L42.5556604,2.66872587 L42.5556604,21.4054054 L44.8474057,21.4054054 Z M59.0823113,2.66872587 L59.0823113,21.4054054 L61.5137972,21.4054054 L61.5137972,2.66872587 L59.0823113,2.66872587 Z M77.4908019,18.8756757 C76.5126179,19.3482625 75.0034198,19.6540541 73.5221698,19.6540541 C68.9386792,19.6540541 66.2836085,16.7073359 66.2836085,12.1204633 C66.2836085,7.2 69.2181604,4.39227799 73.6339623,4.39227799 C75.1990566,4.39227799 76.5126179,4.72586873 77.4349057,5.17065637 L78.021816,3.1969112 C77.3790094,2.86332046 75.8977594,2.36293436 73.5501179,2.36293436 C67.7089623,2.36293436 63.7123821,6.33822394 63.7123821,12.203861 C63.7123821,18.3474903 67.7089623,21.6833977 73.0191038,21.6833977 C75.3108491,21.6833977 77.0995283,21.23861 77.9938679,20.7938224 L77.4908019,18.8756757 Z" id="BIONIC" fill="#FFFFFF" sketch:type="MSShapeGroup"></path>
        </g>
    </g>
</svg>