<?xml version="1.0" encoding="UTF-8" standalone="no"?>
<svg width="12px" height="9px" viewBox="0 0 12 9" version="1.1" xmlns="http://www.w3.org/2000/svg" xmlns:xlink="http://www.w3.org/1999/xlink">
    <!-- Generator: Sketch 3.8.3 (29802) - http://www.bohemiancoding.com/sketch -->
    <title>check</title>
    <desc>Created with Sketch.</desc>
    <defs></defs>
    <g id="Page-1" stroke="none" stroke-width="1" fill="none" fill-rule="evenodd">
        <path d="M11.1839817,1.64372344 C11.1839817,1.46418999 11.1121684,1.28465655 10.9829043,1.15539247 L10.0062423,0.178730539 C9.87697827,0.0494664597 9.69744483,-0.0223469175 9.51791138,-0.0223469175 C9.33837794,-0.0223469175 9.1588445,0.0494664597 9.02958042,0.178730539 L4.31862287,4.89686943 L2.20730958,2.7783748 C2.0780455,2.64911072 1.89851206,2.57729734 1.71897861,2.57729734 C1.53944517,2.57729734 1.35991173,2.64911072 1.23064765,2.7783748 L0.253985716,3.75503673 C0.124721637,3.88430081 0.0529082597,4.06383425 0.0529082597,4.24336769 C0.0529082597,4.42290114 0.124721637,4.60243458 0.253985716,4.73169866 L2.85362997,7.33134291 L3.8302919,8.30800485 C3.95955598,8.43726892 4.13908943,8.5090823 4.31862287,8.5090823 C4.49815631,8.5090823 4.67768976,8.43726892 4.80695383,8.30800485 L5.78361577,7.33134291 L10.9829043,2.1320544 C11.1121684,2.00279032 11.1839817,1.82325688 11.1839817,1.64372344 L11.1839817,1.64372344 Z" id="check" fill="#64A000"></path>
    </g>
</svg>