<?xml version="1.0" encoding="UTF-8" standalone="no"?>
<svg width="14px" height="12px" viewBox="0 0 14 12" version="1.1" xmlns="http://www.w3.org/2000/svg" xmlns:xlink="http://www.w3.org/1999/xlink">
    <!-- Generator: Sketch 3.8.2 (29753) - http://www.bohemiancoding.com/sketch -->
    <title>email</title>
    <desc>Created with Sketch.</desc>
    <defs></defs>
    <g id="Page-1" stroke="none" stroke-width="1" fill="none" fill-rule="evenodd">
        <path d="M14.0000167,4.04908412 C13.7656414,4.30689693 13.5000161,4.5334597 13.2187658,4.72877243 C11.9140767,5.61158599 10.6015751,6.50221205 9.32813612,7.42408815 C8.67188534,7.90846372 7.85938437,8.50221443 7.00782085,8.50221443 L7.00000834,8.50221443 L6.99219584,8.50221443 C6.14063232,8.50221443 5.32813135,7.90846372 4.67188057,7.42408815 C3.39844155,6.49439954 2.08593999,5.61158599 0.789063441,4.72877243 C0.500000596,4.5334597 0.234375279,4.30689693 0,4.04908412 L0,10.2522165 C0,10.9397173 0.562500671,11.502218 1.25000149,11.502218 L12.7500152,11.502218 C13.437516,11.502218 14.0000167,10.9397173 14.0000167,10.2522165 L14.0000167,4.04908412 Z M14.0000167,1.75220639 C14.0000167,1.06470557 13.4297035,0.502204895 12.7500152,0.502204895 L1.25000149,0.502204895 C0.414062994,0.502204895 0,1.15845568 0,1.92408159 C0,2.63501994 0.789063441,3.51783349 1.3437516,3.89283394 C2.55469055,4.73658494 3.78125451,5.58033595 4.99219345,6.43189946 C5.50000656,6.78346238 6.35938258,7.50221324 6.99219584,7.50221324 L7.00000834,7.50221324 L7.00782085,7.50221324 C7.64063411,7.50221324 8.50001013,6.78346238 9.00782324,6.43189946 C10.2187622,5.58033595 11.4453261,4.73658494 12.6640776,3.89283394 C13.3515784,3.41627087 14.0000167,2.62720743 14.0000167,1.75220639 L14.0000167,1.75220639 Z" id="email" fill="#333333"></path>
    </g>
</svg>