<?xml version="1.0" encoding="UTF-8" standalone="no"?>
<svg width="11px" height="14px" viewBox="0 0 11 14" version="1.1" xmlns="http://www.w3.org/2000/svg" xmlns:xlink="http://www.w3.org/1999/xlink">
    <!-- Generator: Sketch 3.8.2 (29753) - http://www.bohemiancoding.com/sketch -->
    <title>export</title>
    <desc>Created with Sketch.</desc>
    <defs></defs>
    <g id="Page-1" stroke="none" stroke-width="1" fill="none" fill-rule="evenodd">
        <g id="export">
            <path d="M10.6054688,5.92641288 C10.5093149,5.70525903 10.2881611,5.55141288 10.0381611,5.55141288 L7.5766226,5.55141288 L7.5766226,1.24372057 C7.5766226,0.907182107 7.29777644,0.628335953 6.96123798,0.628335953 L4.49969952,0.628335953 C4.16316106,0.628335953 3.8843149,0.907182107 3.8843149,1.24372057 L3.8843149,5.55141288 L1.42277644,5.55141288 C1.17277644,5.55141288 0.951622596,5.70525903 0.85546875,5.92641288 C0.759314904,6.15718211 0.807391827,6.42641288 0.990084135,6.5994898 L5.29777644,10.9071821 C5.41316106,11.0321821 5.5766226,11.0898744 5.73046875,11.0898744 C5.8843149,11.0898744 6.04777644,11.0321821 6.16316106,10.9071821 L10.4708534,6.5994898 C10.6535457,6.42641288 10.7016226,6.15718211 10.6054688,5.92641288 L10.6054688,5.92641288 Z" id="Shape" fill="#333333"></path>
            <path d="M1.30702963,12.5898744 L10.3070296,12.5898744" id="Line" stroke="#333333" stroke-linecap="square"></path>
        </g>
    </g>
</svg>