<?xml version="1.0" encoding="UTF-8" standalone="no"?>
<svg width="26px" height="26px" viewBox="0 0 26 26" version="1.1" xmlns="http://www.w3.org/2000/svg" xmlns:xlink="http://www.w3.org/1999/xlink">
    <!-- Generator: Sketch 3.8.3 (29802) - http://www.bohemiancoding.com/sketch -->
    <title>flight-header-closed</title>
    <desc>Created with Sketch.</desc>
    <defs></defs>
    <g id="Page-1" stroke="none" stroke-width="1" fill="none" fill-rule="evenodd">
        <g id="flight-header-closed" transform="translate(1.000000, 1.000000)">
            <g id="Page-1">
                <g id="flight-header">
                    <g id="Group">
                        <circle id="Oval-12" stroke="#CCCCCC" fill="#FFFFFF" cx="12" cy="12" r="12"></circle>
                        <path d="M17.2749718,6.7256264 C16.7749712,6.2256258 15.5249697,6.7256264 14.7749688,7.47562729 L13.5249673,8.72562878 L8.32964866,7.4834398 C8.25152357,7.46000227 8.15777346,7.49125231 8.09527338,7.54593987 L7.09527219,8.54594106 C7.04058462,8.60062863 7.0171471,8.68656623 7.02495961,8.75687882 C7.04058462,8.83500391 7.08745968,8.90531649 7.15777226,8.94437904 L11.126527,11.1240691 L9.10308708,13.147509 L7.58746028,12.733446 C7.57183526,12.7256335 7.54839773,12.7256335 7.5249602,12.7256335 C7.46246013,12.7256335 7.39214754,12.7490711 7.34527249,12.7959461 L6.59527159,13.5537595 C6.54839654,13.6084471 6.5171465,13.6787597 6.52495901,13.7490723 C6.53277152,13.8193848 6.56402156,13.8896974 6.62652163,13.92876 L8.59527398,15.4053242 L10.0718382,17.3740766 C10.1187133,17.4365767 10.1812134,17.4678267 10.2593385,17.4756392 L10.2749635,17.4756392 C10.3374636,17.4756392 10.4077761,17.4522017 10.4546512,17.4053266 L11.2046521,16.6553257 C11.2671522,16.5850131 11.2905897,16.4990755 11.2671522,16.4131379 L10.8530892,14.8975111 L12.8765291,12.8740712 L15.0562192,16.8428259 C15.0874692,16.9131385 15.1499693,16.9522011 15.2202819,16.9678261 C15.2437194,16.9756386 15.2593444,16.9756386 15.2749694,16.9756386 C15.329657,16.9756386 15.3843446,16.9600136 15.4234071,16.9287635 L16.4234083,16.1787627 C16.5015334,16.1162626 16.5405959,16.0147 16.5171584,15.9209498 L15.2671569,10.4834434 L16.5249709,9.22562938 C17.2749718,8.47562848 17.7749724,7.22562699 17.2749718,6.7256264 L17.2749718,6.7256264 L17.2749718,6.7256264 L17.2749718,6.7256264 Z" id="ï²" fill="#69AED4" transform="translate(12.000000, 12.000000) rotate(-45.000000) translate(-12.000000, -12.000000) "></path>
                    </g>
                </g>
            </g>
        </g>
    </g>
</svg>