<?xml version="1.0" encoding="UTF-8"?>
<svg width="16px" height="13px" viewBox="0 0 16 13" version="1.1" xmlns="http://www.w3.org/2000/svg" xmlns:xlink="http://www.w3.org/1999/xlink">
    <!-- Generator: Sketch 42 (36781) - http://www.bohemiancoding.com/sketch -->
    <title>green-checkmark</title>
    <desc>Created with Sketch.</desc>
    <defs></defs>
    <g id="Page-1" stroke="none" stroke-width="1" fill="none" fill-rule="evenodd">
        <path d="M15.7845982,3.25669643 C15.7845982,3.52455491 15.6908492,3.75223121 15.5033482,3.93973214 L6.86495536,12.578125 C6.67745442,12.7656259 6.44977812,12.859375 6.18191964,12.859375 C5.91406116,12.859375 5.68638487,12.7656259 5.49888393,12.578125 L0.496651786,7.57589286 C0.309150848,7.38839192 0.215401786,7.16071563 0.215401786,6.89285714 C0.215401786,6.62499866 0.309150848,6.39732237 0.496651786,6.20982143 L1.86272321,4.84375 C2.05022415,4.65624906 2.27790045,4.5625 2.54575893,4.5625 C2.81361741,4.5625 3.04129371,4.65624906 3.22879464,4.84375 L6.18191964,7.80691964 L12.7712054,1.20758929 C12.9587063,1.02008835 13.1863826,0.926339286 13.4542411,0.926339286 C13.7220996,0.926339286 13.9497758,1.02008835 14.1372768,1.20758929 L15.5033482,2.57366071 C15.6908492,2.76116165 15.7845982,2.98883795 15.7845982,3.25669643 Z" id="green-checkmark" fill="#379F58"></path>
    </g>
</svg>