<?xml version="1.0" encoding="UTF-8" standalone="no"?>
<svg width="11px" height="11px" viewBox="0 0 11 11" version="1.1" xmlns="http://www.w3.org/2000/svg" xmlns:xlink="http://www.w3.org/1999/xlink">
    <!-- Generator: Sketch 3.8.3 (29802) - http://www.bohemiancoding.com/sketch -->
    <title>pencil</title>
    <desc>Created with Sketch.</desc>
    <defs></defs>
    <g id="Page-1" stroke="none" stroke-width="1" fill="none" fill-rule="evenodd">
        <path d="M2.94788209,9.72220848 L2.23136338,9.72220848 L2.23136338,8.86506461 L1.3742195,8.86506461 L1.3742195,8.14854589 L1.98359523,7.53917017 L3.55725782,9.11283276 L2.94788209,9.72220848 Z M6.45011841,3.50791536 C6.45011841,3.54809398 6.43672554,3.5882726 6.40324335,3.62175478 L2.77377474,7.2512234 C2.74029256,7.28470558 2.70011394,7.29809845 2.65993532,7.29809845 C2.57288164,7.29809845 2.51261372,7.23783052 2.51261372,7.15077685 C2.51261372,7.11059823 2.52600659,7.07041961 2.55948877,7.03693743 L6.18895738,3.40746881 C6.22243957,3.37398663 6.26261819,3.36059376 6.3027968,3.36059376 C6.38985048,3.36059376 6.45011841,3.42086169 6.45011841,3.50791536 L6.45011841,3.50791536 Z M6.08851084,2.22219954 L0.517075622,7.79363476 L0.517075622,10.5793524 L3.30279323,10.5793524 L8.87422844,5.00791715 L6.08851084,2.22219954 Z M10.662177,2.86505745 C10.662177,2.63737861 10.5684269,2.4163962 10.4144088,2.25568173 L8.84074626,0.688715573 C8.68003178,0.528001096 8.45904938,0.434250984 8.23137053,0.434250984 C8.00369169,0.434250984 7.78270928,0.528001096 7.62869124,0.688715573 L6.51708277,1.7936276 L9.30280038,4.57934521 L10.4144088,3.46773674 C10.5684269,3.3137187 10.662177,3.0927363 10.662177,2.86505745 L10.662177,2.86505745 Z" id="pencil" fill="#69AED4"></path>
    </g>
</svg>