<?xml version="1.0" encoding="UTF-8"?>
<svg width="13px" height="13px" viewBox="0 0 13 13" version="1.1" xmlns="http://www.w3.org/2000/svg" xmlns:xlink="http://www.w3.org/1999/xlink">
    <!-- Generator: Sketch 42 (36781) - http://www.bohemiancoding.com/sketch -->
    <title>red-x</title>
    <desc>Created with Sketch.</desc>
    <defs></defs>
    <g id="Page-1" stroke="none" stroke-width="1" fill="none" fill-rule="evenodd">
        <path d="M12.1902902,9.88616071 C12.1902902,10.1540192 12.0965411,10.3816955 11.9090402,10.5691964 L10.5429688,11.9352679 C10.3554678,12.1227688 10.1277915,12.2165179 9.85993304,12.2165179 C9.59207455,12.2165179 9.36439826,12.1227688 9.17689732,11.9352679 L6.22377232,8.98214286 L3.27064732,11.9352679 C3.08314638,12.1227688 2.85547009,12.2165179 2.58761161,12.2165179 C2.31975313,12.2165179 2.09207683,12.1227688 1.90457589,11.9352679 L0.538504464,10.5691964 C0.351003527,10.3816955 0.257254464,10.1540192 0.257254464,9.88616071 C0.257254464,9.61830223 0.351003527,9.39062594 0.538504464,9.203125 L3.49162946,6.25 L0.538504464,3.296875 C0.351003527,3.10937406 0.257254464,2.88169777 0.257254464,2.61383929 C0.257254464,2.3459808 0.351003527,2.11830451 0.538504464,1.93080357 L1.90457589,0.564732143 C2.09207683,0.377231205 2.31975313,0.283482143 2.58761161,0.283482143 C2.85547009,0.283482143 3.08314638,0.377231205 3.27064732,0.564732143 L6.22377232,3.51785714 L9.17689732,0.564732143 C9.36439826,0.377231205 9.59207455,0.283482143 9.85993304,0.283482143 C10.1277915,0.283482143 10.3554678,0.377231205 10.5429688,0.564732143 L11.9090402,1.93080357 C12.0965411,2.11830451 12.1902902,2.3459808 12.1902902,2.61383929 C12.1902902,2.88169777 12.0965411,3.10937406 11.9090402,3.296875 L8.95591518,6.25 L11.9090402,9.203125 C12.0965411,9.39062594 12.1902902,9.61830223 12.1902902,9.88616071 Z" id="red-x" fill="#EE3024"></path>
    </g>
</svg>