<?xml version="1.0" encoding="UTF-8" standalone="no"?>
<svg width="21px" height="15px" viewBox="0 0 21 15" version="1.1" xmlns="http://www.w3.org/2000/svg" xmlns:xlink="http://www.w3.org/1999/xlink">
    <!-- Generator: Sketch 3.8.2 (29753) - http://www.bohemiancoding.com/sketch -->
    <title>screen</title>
    <desc>Created with Sketch.</desc>
    <defs></defs>
    <g id="Page-1" stroke="none" stroke-width="1" fill="none" fill-rule="evenodd">
        <g id="screen" transform="translate(0.000000, 0.600830)" fill="#9B9B9B">
            <path d="M5.06380208,10.8095085 L16.3971354,10.8095085 C17.3138021,10.8095085 18.0638021,10.0595085 18.0638021,9.14284182 L18.0638021,1.80950848 C18.0638021,0.892841816 17.3138021,0.142841816 16.3971354,0.142841816 L5.06380208,0.142841816 C4.14713542,0.142841816 3.39713542,0.892841816 3.39713542,1.80950848 L3.39713542,9.14284182 C3.39713542,10.0595085 4.14713542,10.8095085 5.06380208,10.8095085 L5.06380208,10.8095085 Z M4.73046875,1.80950848 C4.73046875,1.63242515 4.88671875,1.47617515 5.06380208,1.47617515 L16.3971354,1.47617515 C16.5742188,1.47617515 16.7304688,1.63242515 16.7304688,1.80950848 L16.7304688,9.14284182 C16.7304688,9.31992515 16.5742188,9.47617515 16.3971354,9.47617515 L5.06380208,9.47617515 C4.88671875,9.47617515 4.73046875,9.31992515 4.73046875,9.14284182 L4.73046875,1.80950848 Z M19.0638021,11.4761751 L2.39713542,11.4761751 L0.73046875,11.4761751 L0.73046875,12.4761751 C0.73046875,13.0282585 1.48046875,13.4761751 2.39713542,13.4761751 L19.0638021,13.4761751 C19.9804688,13.4761751 20.7304688,13.0282585 20.7304688,12.4761751 L20.7304688,11.4761751 L19.0638021,11.4761751 Z M11.5638021,12.4761751 L9.89713542,12.4761751 C9.80338542,12.4761751 9.73046875,12.4032585 9.73046875,12.3095085 C9.73046875,12.2157585 9.80338542,12.1428418 9.89713542,12.1428418 L11.5638021,12.1428418 C11.6575521,12.1428418 11.7304688,12.2157585 11.7304688,12.3095085 C11.7304688,12.4032585 11.6575521,12.4761751 11.5638021,12.4761751 L11.5638021,12.4761751 Z" id=""></path>
        </g>
    </g>
</svg>