<?xml version="1.0" encoding="UTF-8" standalone="no"?>
<svg width="109px" height="111px" viewBox="0 0 109 111" version="1.1" xmlns="http://www.w3.org/2000/svg" xmlns:xlink="http://www.w3.org/1999/xlink">
    <!-- Generator: Sketch 39.1 (31720) - http://www.bohemiancoding.com/sketch -->
    <title>stormcloud</title>
    <desc>Created with Sketch.</desc>
    <defs></defs>
    <g id="Page-1" stroke="none" stroke-width="1" fill="none" fill-rule="evenodd">
        <g id="stormcloud">
            <path d="M108.106585,58.0714286 C108.106585,63.9866367 106.013972,69.0368094 101.828683,73.2220982 C97.6433943,77.407387 92.5932215,79.5 86.6780134,79.5 L25.9637277,79.5 C19.0812528,79.5 13.1940349,77.0539679 8.30189732,72.1618304 C3.40975977,67.2696928 0.963727679,61.3824749 0.963727679,54.5 C0.963727679,49.5892612 2.284399,45.0971186 4.92578125,41.0234375 C7.5671635,36.9497564 11.0455513,33.9084922 15.3610491,31.8995536 C15.286644,30.8578817 15.249442,30.0580385 15.249442,29.5 C15.249442,21.6130558 18.0395926,14.8794922 23.6199777,9.29910714 C29.2003627,3.7187221 35.9339263,0.928571429 43.8208705,0.928571429 C49.6988761,0.928571429 55.0280639,2.56545982 59.8085938,5.83928571 C64.5891236,9.11311161 68.0768119,13.3913426 70.2717634,18.6741071 C72.8759431,16.367548 75.9637098,15.2142857 79.5351563,15.2142857 C83.4786283,15.2142857 86.8454102,16.609361 89.6356027,19.3995536 C92.4257952,22.1897461 93.8208705,25.5565279 93.8208705,29.5 C93.8208705,32.2901925 93.0582294,34.8571311 91.5329241,37.2008929 C96.3320552,38.3169699 100.294069,40.818805 103.419085,44.7064732 C106.5441,48.5941415 108.106585,53.049082 108.106585,58.0714286 L108.106585,58.0714286 Z" id="" fill="#DDDDDD"></path>
            <path d="M82.2405134,75.9464286 C82.5619436,76.3035732 82.6244429,76.6964264 82.4280134,77.125 L67.9637277,108.116071 C67.7315837,108.562502 67.3565874,108.785714 66.8387277,108.785714 C66.7672987,108.785714 66.6423,108.767857 66.4637277,108.732143 C66.1601547,108.642857 65.9324784,108.473216 65.780692,108.223214 C65.6289055,107.973213 65.5887273,107.705359 65.6601562,107.419643 L70.936942,85.7767857 L60.061942,88.4821429 C59.990513,88.5000001 59.8833712,88.5089286 59.7405134,88.5089286 C59.4190832,88.5089286 59.1423003,88.4107153 58.9101562,88.2142857 C58.5887261,87.9464272 58.4726558,87.5982164 58.561942,87.1696429 L63.9458705,65.0714286 C64.0172995,64.8214273 64.1601552,64.6160722 64.374442,64.4553571 C64.5887287,64.2946421 64.8387262,64.2142857 65.124442,64.2142857 L73.9101562,64.2142857 C74.2494437,64.2142857 74.5351551,64.3258917 74.7672991,64.5491071 C74.9994431,64.7723225 75.1155134,65.0357128 75.1155134,65.3392857 C75.1155134,65.4821436 75.070871,65.6428563 74.9815848,65.8214286 L70.4012277,78.2232143 L81.0083705,75.5982143 C81.1512284,75.5624998 81.2583702,75.5446429 81.3297991,75.5446429 C81.6690865,75.5446429 81.9726549,75.6785701 82.2405134,75.9464286 L82.2405134,75.9464286 Z" id="" fill="#F39C0F"></path>
            <path d="M5.77734375,84.5195312 L5.77734375,94.5195312" id="Line" stroke="#69AED4" stroke-width="3" stroke-linecap="square"></path>
            <path d="M15.7773438,94.5195312 L15.7773438,104.519531" id="Line-Copy" stroke="#69AED4" stroke-width="3" stroke-linecap="square"></path>
            <path d="M25.7773438,88.5195312 L25.7773438,98.5195312" id="Line-Copy-2" stroke="#69AED4" stroke-width="3" stroke-linecap="square"></path>
            <path d="M35.7773438,98.5195312 L35.7773438,108.519531" id="Line-Copy-3" stroke="#69AED4" stroke-width="3" stroke-linecap="square"></path>
            <path d="M45.7773438,88.5195312 L45.7773438,98.5195312" id="Line-Copy-4" stroke="#69AED4" stroke-width="3" stroke-linecap="square"></path>
            <path d="M55.7773438,98.5195312 L55.7773438,108.519531" id="Line-Copy-5" stroke="#69AED4" stroke-width="3" stroke-linecap="square"></path>
            <path d="M90.7773438,86.5195312 L90.7773438,96.5195312" id="Line-Copy-6" stroke="#69AED4" stroke-width="3" stroke-linecap="square"></path>
            <path d="M81.7773438,96.5195312 L81.7773438,106.519531" id="Line-Copy-7" stroke="#69AED4" stroke-width="3" stroke-linecap="square"></path>
        </g>
    </g>
</svg>