<?xml version="1.0" encoding="UTF-8" standalone="no"?>
<svg width="12px" height="12px" viewBox="0 0 12 12" version="1.1" xmlns="http://www.w3.org/2000/svg" xmlns:xlink="http://www.w3.org/1999/xlink">
    <!-- Generator: Sketch 3.8.3 (29802) - http://www.bohemiancoding.com/sketch -->
    <title>yield</title>
    <desc>Created with Sketch.</desc>
    <defs></defs>
    <g id="Page-1" stroke="none" stroke-width="1" fill="none" fill-rule="evenodd">
        <path d="M6.82503508,9.6440822 C6.82503508,9.76461806 6.73128497,9.86506461 6.61074911,9.86506461 L5.32503329,9.86506461 C5.20449744,9.86506461 5.11074732,9.76461806 5.11074732,9.6440822 L5.11074732,8.37175925 C5.11074732,8.2512234 5.20449744,8.15077685 5.32503329,8.15077685 L6.61074911,8.15077685 C6.73128497,8.15077685 6.82503508,8.2512234 6.82503508,8.37175925 L6.82503508,9.6440822 Z M6.81164221,7.13961493 C6.80494577,7.2266686 6.70449922,7.29363297 6.58396337,7.29363297 L5.3451226,7.29363297 C5.21789031,7.29363297 5.11744376,7.2266686 5.11744376,7.13961493 L5.00360434,4.07934342 C5.00360434,4.0391648 5.02369365,3.97220044 5.07056871,3.93871826 C5.11074732,3.90523607 5.17101525,3.86505745 5.23128318,3.86505745 L6.70449922,3.86505745 C6.76476715,3.86505745 6.82503508,3.90523607 6.8652137,3.93871826 C6.91208876,3.97220044 6.93217807,4.02577193 6.93217807,4.06595055 L6.81164221,7.13961493 Z M6.7178921,0.885143187 C6.57057049,0.610589288 6.28262372,0.436481937 5.9678912,0.436481937 C5.65315869,0.436481937 5.36521191,0.610589288 5.21789031,0.885143187 L0.0750270362,10.3137259 C-0.0722945679,10.5748869 -0.0655981314,10.8963158 0.0884199094,11.1574769 C0.24243795,11.4186379 0.523688285,11.5793524 0.82502793,11.5793524 L11.1107545,11.5793524 C11.4120941,11.5793524 11.6933445,11.4186379 11.8473625,11.1574769 C12.0013805,10.8963158 12.008077,10.5748869 11.8607554,10.3137259 L6.7178921,0.885143187 Z" id="yield" fill="#F39C0F"></path>
    </g>
</svg>